<svg width="214" height="31" viewBox="0 0 214 31" fill="none" xmlns="http://www.w3.org/2000/svg">
<path d="M4.576 5.88459C6.06933 5.88459 7.15733 6.17793 7.84 6.76459C8.52267 7.35126 8.864 8.17793 8.864 9.24459C8.864 9.71393 8.784 10.1673 8.624 10.6046C8.47467 11.0313 8.224 11.4153 7.872 11.7566C7.52 12.0979 7.05067 12.3699 6.464 12.5726C5.87733 12.7646 5.15733 12.8606 4.304 12.8606H2.992V17.3086H1.552V5.88459H4.576ZM4.448 7.11659H2.992V11.6286H4.144C4.86933 11.6286 5.472 11.5539 5.952 11.4046C6.432 11.2446 6.78933 10.9939 7.024 10.6526C7.25867 10.3113 7.376 9.86326 7.376 9.30859C7.376 8.57259 7.14133 8.02326 6.672 7.66059C6.20267 7.29793 5.46133 7.11659 4.448 7.11659ZM18.5035 13.0046C18.5035 13.7193 18.4075 14.3539 18.2155 14.9086C18.0342 15.4526 17.7675 15.9166 17.4155 16.3006C17.0742 16.6846 16.6528 16.9779 16.1515 17.1806C15.6608 17.3726 15.1115 17.4686 14.5035 17.4686C13.9382 17.4686 13.4155 17.3726 12.9355 17.1806C12.4555 16.9779 12.0395 16.6846 11.6875 16.3006C11.3355 15.9166 11.0582 15.4526 10.8555 14.9086C10.6635 14.3539 10.5675 13.7193 10.5675 13.0046C10.5675 12.0553 10.7275 11.2553 11.0475 10.6046C11.3675 9.94326 11.8262 9.44193 12.4235 9.10059C13.0208 8.74859 13.7302 8.57259 14.5515 8.57259C15.3302 8.57259 16.0128 8.74859 16.5995 9.10059C17.1968 9.44193 17.6608 9.94326 17.9915 10.6046C18.3328 11.2553 18.5035 12.0553 18.5035 13.0046ZM12.0235 13.0046C12.0235 13.6766 12.1088 14.2633 12.2795 14.7646C12.4608 15.2553 12.7382 15.6339 13.1115 15.9006C13.4848 16.1673 13.9595 16.3006 14.5355 16.3006C15.1115 16.3006 15.5862 16.1673 15.9595 15.9006C16.3328 15.6339 16.6048 15.2553 16.7755 14.7646C16.9568 14.2633 17.0475 13.6766 17.0475 13.0046C17.0475 12.3219 16.9568 11.7406 16.7755 11.2606C16.5942 10.7806 16.3168 10.4126 15.9435 10.1566C15.5808 9.88993 15.1062 9.75659 14.5195 9.75659C13.6448 9.75659 13.0102 10.0446 12.6155 10.6206C12.2208 11.1966 12.0235 11.9913 12.0235 13.0046ZM25.9585 12.4606C25.8945 12.2366 25.8305 12.0179 25.7665 11.8046C25.7025 11.5806 25.6438 11.3726 25.5905 11.1806C25.5478 10.9779 25.5052 10.7913 25.4625 10.6206C25.4198 10.4499 25.3878 10.3059 25.3665 10.1886H25.3025C25.2812 10.3059 25.2492 10.4499 25.2065 10.6206C25.1745 10.7913 25.1318 10.9779 25.0785 11.1806C25.0358 11.3833 24.9825 11.5966 24.9185 11.8206C24.8652 12.0339 24.8012 12.2526 24.7265 12.4766L23.1905 17.2926H21.5905L19.2385 8.71659H20.6945L21.8785 13.2926C21.9638 13.6019 22.0438 13.9166 22.1185 14.2366C22.1932 14.5459 22.2572 14.8446 22.3105 15.1326C22.3745 15.4099 22.4172 15.6499 22.4385 15.8526H22.5025C22.5345 15.7246 22.5718 15.5646 22.6145 15.3726C22.6572 15.1806 22.6998 14.9779 22.7425 14.7646C22.7958 14.5513 22.8492 14.3379 22.9025 14.1246C22.9665 13.9113 23.0252 13.7193 23.0785 13.5486L24.5985 8.71659H26.1345L27.6065 13.5486C27.6812 13.7939 27.7558 14.0553 27.8305 14.3326C27.9158 14.6099 27.9905 14.8819 28.0545 15.1486C28.1185 15.4046 28.1612 15.6339 28.1825 15.8366H28.2465C28.2678 15.6553 28.3052 15.4313 28.3585 15.1646C28.4225 14.8873 28.4918 14.5886 28.5665 14.2686C28.6518 13.9379 28.7372 13.6126 28.8225 13.2926L30.0225 8.71659H31.4625L29.0785 17.2926H27.4305L25.9585 12.4606ZM36.3126 8.57259C37.0486 8.57259 37.678 8.73259 38.2006 9.05259C38.734 9.37259 39.1393 9.82593 39.4166 10.4126C39.7046 10.9886 39.8486 11.6659 39.8486 12.4446V13.2926H33.9766C33.998 14.2633 34.2433 15.0046 34.7126 15.5166C35.1926 16.0179 35.8593 16.2686 36.7126 16.2686C37.2566 16.2686 37.7366 16.2206 38.1526 16.1246C38.5793 16.0179 39.0166 15.8686 39.4646 15.6766V16.9086C39.0273 17.1006 38.5953 17.2393 38.1686 17.3246C37.742 17.4206 37.2353 17.4686 36.6486 17.4686C35.838 17.4686 35.118 17.3033 34.4886 16.9726C33.87 16.6419 33.3846 16.1513 33.0326 15.5006C32.6913 14.8393 32.5206 14.0339 32.5206 13.0846C32.5206 12.1459 32.6753 11.3406 32.9846 10.6686C33.3046 9.99659 33.7473 9.47926 34.3126 9.11659C34.8886 8.75393 35.5553 8.57259 36.3126 8.57259ZM36.2966 9.72459C35.6246 9.72459 35.0913 9.94326 34.6966 10.3806C34.3126 10.8073 34.0833 11.4046 34.0086 12.1726H38.3766C38.3766 11.6819 38.302 11.2553 38.1526 10.8926C38.0033 10.5299 37.774 10.2473 37.4646 10.0446C37.166 9.83126 36.7766 9.72459 36.2966 9.72459ZM46.0319 8.57259C46.1919 8.57259 46.3625 8.58326 46.5439 8.60459C46.7359 8.61526 46.9012 8.63659 47.0399 8.66859L46.8639 9.96459C46.7252 9.93259 46.5705 9.90593 46.3999 9.88459C46.2399 9.86326 46.0852 9.85259 45.9359 9.85259C45.6052 9.85259 45.2905 9.92193 44.9919 10.0606C44.6932 10.1993 44.4265 10.3966 44.1919 10.6526C43.9572 10.8979 43.7705 11.1966 43.6319 11.5486C43.5039 11.9006 43.4399 12.2953 43.4399 12.7326V17.3086H42.0319V8.73259H43.1839L43.3439 10.3006H43.4079C43.5892 9.98059 43.8079 9.69259 44.0639 9.43659C44.3199 9.16993 44.6132 8.96193 44.9439 8.81259C45.2745 8.65259 45.6372 8.57259 46.0319 8.57259ZM51.3688 17.4686C50.3021 17.4686 49.4488 17.1006 48.8088 16.3646C48.1688 15.6179 47.8488 14.5086 47.8488 13.0366C47.8488 11.5646 48.1688 10.4553 48.8088 9.70859C49.4594 8.95126 50.3181 8.57259 51.3848 8.57259C51.8328 8.57259 52.2221 8.63126 52.5528 8.74859C52.8834 8.85526 53.1714 9.00459 53.4168 9.19659C53.6621 9.38859 53.8701 9.60193 54.0408 9.83659H54.1368C54.1261 9.69793 54.1048 9.49526 54.0728 9.22859C54.0514 8.95126 54.0408 8.73259 54.0408 8.57259V5.14859H55.4488V17.3086H54.3128L54.1048 16.1566H54.0408C53.8701 16.4019 53.6621 16.6259 53.4168 16.8286C53.1714 17.0206 52.8781 17.1753 52.5368 17.2926C52.2061 17.4099 51.8168 17.4686 51.3688 17.4686ZM51.5928 16.3006C52.4994 16.3006 53.1341 16.0553 53.4968 15.5646C53.8701 15.0633 54.0568 14.3113 54.0568 13.3086V13.0526C54.0568 11.9859 53.8808 11.1699 53.5288 10.6046C53.1768 10.0286 52.5261 9.74059 51.5768 9.74059C50.8194 9.74059 50.2488 10.0446 49.8648 10.6526C49.4914 11.2499 49.3048 12.0553 49.3048 13.0686C49.3048 14.0926 49.4914 14.8873 49.8648 15.4526C50.2488 16.0179 50.8248 16.3006 51.5928 16.3006ZM62.7836 8.10859C62.7836 8.47126 62.773 8.81259 62.7516 9.13259C62.741 9.44193 62.725 9.68726 62.7036 9.86859H62.7836C63.029 9.50593 63.365 9.20193 63.7916 8.95659C64.2183 8.71126 64.7676 8.58859 65.4396 8.58859C66.5063 8.58859 67.3596 8.96193 67.9996 9.70859C68.6503 10.4446 68.9756 11.5486 68.9756 13.0206C68.9756 14.0019 68.8263 14.8233 68.5276 15.4846C68.2396 16.1459 67.829 16.6419 67.2956 16.9726C66.7623 17.3033 66.1436 17.4686 65.4396 17.4686C64.7676 17.4686 64.2183 17.3459 63.7916 17.1006C63.365 16.8553 63.029 16.5619 62.7836 16.2206H62.6716L62.3836 17.3086H61.3756V5.14859H62.7836V8.10859ZM65.1996 9.75659C64.5916 9.75659 64.1116 9.87393 63.7596 10.1086C63.4076 10.3326 63.157 10.6846 63.0076 11.1646C62.8583 11.6339 62.7836 12.2366 62.7836 12.9726V13.0366C62.7836 14.0926 62.9543 14.9033 63.2956 15.4686C63.6476 16.0233 64.293 16.3006 65.2316 16.3006C65.9996 16.3006 66.5703 16.0179 66.9436 15.4526C67.3276 14.8873 67.5196 14.0713 67.5196 13.0046C67.5196 11.9273 67.3276 11.1166 66.9436 10.5726C66.5703 10.0286 65.989 9.75659 65.1996 9.75659ZM69.5629 8.73259H71.0669L72.9229 13.6126C73.0295 13.9006 73.1255 14.1779 73.2109 14.4446C73.3069 14.7113 73.3922 14.9726 73.4669 15.2286C73.5415 15.4739 73.6002 15.7139 73.6429 15.9486H73.7069C73.7709 15.6819 73.8722 15.3353 74.0109 14.9086C74.1495 14.4713 74.2935 14.0339 74.4429 13.5966L76.1869 8.73259H77.7069L74.0109 18.4926C73.8082 19.0259 73.5682 19.4899 73.2909 19.8846C73.0242 20.2899 72.6935 20.5993 72.2989 20.8126C71.9149 21.0366 71.4455 21.1486 70.8909 21.1486C70.6349 21.1486 70.4109 21.1326 70.2189 21.1006C70.0269 21.0793 69.8615 21.0526 69.7229 21.0206V19.9006C69.8402 19.9219 69.9789 19.9433 70.1389 19.9646C70.3095 19.9859 70.4855 19.9966 70.6669 19.9966C70.9975 19.9966 71.2802 19.9326 71.5149 19.8046C71.7602 19.6873 71.9682 19.5113 72.1389 19.2766C72.3095 19.0526 72.4535 18.7859 72.5709 18.4766L73.0189 17.3406L69.5629 8.73259Z" fill="#003768"/>
<path d="M95.5252 18.1019L97.1561 17.1476L91.2223 13.7297V12.9662L92.2633 12.3763L93.8943 11.4394L95.5946 10.4505L99.8974 12.9489L101.528 13.8858V11.9946L99.8974 11.0577L97.2081 9.51357L95.5946 8.57666L93.9637 9.51357L92.2633 10.5025L91.2223 11.0924L90.6324 11.4394L89.5914 12.0293V14.9095L95.5252 18.1019Z" fill="#003768"/>
<path d="M101.528 15.8467V18.6227L99.8974 19.577L99.0473 20.0628L98.9779 20.0975L97.2428 21.1038L95.6293 22.0407L93.9984 21.1038L91.2223 19.4902L89.5914 18.5533V16.6795L91.2223 17.6164L95.6293 20.1495L97.3643 19.1606L98.9779 18.2063L99.8974 17.6858V16.7836L93.981 13.3656L95.5946 12.4287L99.8974 14.8924L101.528 15.8467Z" fill="#003768"/>
<path d="M101.407 21.0688L95.5947 24.4348L89.765 21.0688L89.5915 20.9821L87.631 19.837V10.7802L95.5947 6.18241L103.229 10.6067L103.541 10.4158L104.86 9.66979L103.541 8.90639L97.2083 5.2455L95.5947 4.30859L93.9638 5.2455L87.631 8.90639L86.0001 9.84329V20.7739L95.5947 26.3086L97.2083 25.3717L103.541 21.7282L104.114 21.3985L103.541 21.0688L102.483 20.4442L101.528 21.0168L101.407 21.0688Z" fill="#003768"/>
<path d="M105.172 11.04V12.8098L103.541 13.7467V11.9769L104.582 11.387L105.172 11.04Z" fill="#003768"/>
<path d="M105.172 14.3711V20.4436L103.836 19.6802L103.541 19.5067V15.308L105.172 14.3711Z" fill="#003768"/>
<path d="M118.008 2.56859C117.552 2.56859 117.14 2.64859 116.772 2.80859C116.404 2.96059 116.092 3.18859 115.836 3.49259C115.58 3.78859 115.384 4.15259 115.248 4.58459C115.112 5.00859 115.044 5.48859 115.044 6.02459C115.044 6.72859 115.152 7.34059 115.368 7.86059C115.592 8.38059 115.92 8.78059 116.352 9.06059C116.792 9.34059 117.34 9.48059 117.996 9.48059C118.372 9.48059 118.728 9.44859 119.064 9.38459C119.4 9.32059 119.728 9.24059 120.048 9.14459V10.0806C119.728 10.2006 119.396 10.2886 119.052 10.3446C118.716 10.4006 118.312 10.4286 117.84 10.4286C116.968 10.4286 116.24 10.2486 115.656 9.88859C115.072 9.52859 114.632 9.01659 114.336 8.35259C114.048 7.68859 113.904 6.90859 113.904 6.01259C113.904 5.36459 113.992 4.77259 114.168 4.23659C114.352 3.70059 114.616 3.23659 114.96 2.84459C115.312 2.45259 115.744 2.15259 116.256 1.94459C116.768 1.72859 117.356 1.62059 118.02 1.62059C118.46 1.62059 118.884 1.66459 119.292 1.75259C119.7 1.84059 120.064 1.96459 120.384 2.12459L119.952 3.03659C119.688 2.91659 119.392 2.80859 119.064 2.71259C118.744 2.61659 118.392 2.56859 118.008 2.56859ZM127.294 10.3086L126.262 7.65659H122.866L121.846 10.3086H120.754L124.102 1.70459H125.074L128.41 10.3086H127.294ZM124.978 4.10459C124.954 4.04059 124.914 3.92459 124.858 3.75659C124.802 3.58859 124.746 3.41659 124.69 3.24059C124.642 3.05659 124.602 2.91659 124.57 2.82059C124.53 2.98059 124.486 3.14459 124.438 3.31259C124.398 3.47259 124.354 3.62059 124.306 3.75659C124.266 3.89259 124.23 4.00859 124.198 4.10459L123.226 6.69659H125.938L124.978 4.10459ZM131.85 1.74059C132.97 1.74059 133.786 1.96059 134.298 2.40059C134.81 2.84059 135.066 3.46059 135.066 4.26059C135.066 4.61259 135.006 4.95259 134.886 5.28059C134.774 5.60059 134.586 5.88859 134.322 6.14459C134.058 6.40059 133.706 6.60459 133.266 6.75659C132.826 6.90059 132.286 6.97259 131.646 6.97259H130.662V10.3086H129.582V1.74059H131.85ZM131.754 2.66459H130.662V6.04859H131.526C132.07 6.04859 132.522 5.99259 132.882 5.88059C133.242 5.76059 133.51 5.57259 133.686 5.31659C133.862 5.06059 133.95 4.72459 133.95 4.30859C133.95 3.75659 133.774 3.34459 133.422 3.07259C133.07 2.80059 132.514 2.66459 131.754 2.66459ZM139.26 10.3086H136.164V9.68459L137.172 9.45659V2.60459L136.164 2.36459V1.74059H139.26V2.36459L138.252 2.60459V9.45659L139.26 9.68459V10.3086ZM143.626 10.3086H142.546V2.68859H139.87V1.74059H146.29V2.68859H143.626V10.3086ZM152.114 10.3086L151.082 7.65659H147.686L146.666 10.3086H145.574L148.922 1.70459H149.894L153.23 10.3086H152.114ZM149.798 4.10459C149.774 4.04059 149.734 3.92459 149.678 3.75659C149.622 3.58859 149.566 3.41659 149.51 3.24059C149.462 3.05659 149.422 2.91659 149.39 2.82059C149.35 2.98059 149.306 3.14459 149.258 3.31259C149.218 3.47259 149.174 3.62059 149.126 3.75659C149.086 3.89259 149.05 4.00859 149.018 4.10459L148.046 6.69659H150.758L149.798 4.10459ZM154.402 10.3086V1.74059H155.482V9.34859H159.226V10.3086H154.402ZM167.958 8.01659C167.958 8.52859 167.834 8.96459 167.586 9.32459C167.338 9.67659 166.982 9.94859 166.518 10.1406C166.062 10.3326 165.522 10.4286 164.898 10.4286C164.578 10.4286 164.27 10.4126 163.974 10.3806C163.686 10.3486 163.422 10.3046 163.182 10.2486C162.942 10.1846 162.73 10.1086 162.546 10.0206V8.98859C162.834 9.11659 163.19 9.23259 163.614 9.33659C164.046 9.44059 164.49 9.49259 164.946 9.49259C165.37 9.49259 165.726 9.43659 166.014 9.32459C166.302 9.21259 166.518 9.05259 166.662 8.84459C166.806 8.63659 166.878 8.39259 166.878 8.11259C166.878 7.83259 166.818 7.59659 166.698 7.40459C166.578 7.21259 166.37 7.03659 166.074 6.87659C165.786 6.70859 165.382 6.53259 164.862 6.34859C164.494 6.21259 164.17 6.06859 163.89 5.91659C163.618 5.75659 163.39 5.57659 163.206 5.37659C163.022 5.17659 162.882 4.94859 162.786 4.69259C162.698 4.43659 162.654 4.14059 162.654 3.80459C162.654 3.34859 162.77 2.96059 163.002 2.64059C163.234 2.31259 163.554 2.06059 163.962 1.88459C164.378 1.70859 164.854 1.62059 165.39 1.62059C165.862 1.62059 166.294 1.66459 166.686 1.75259C167.078 1.84059 167.434 1.95659 167.754 2.10059L167.418 3.02459C167.122 2.89659 166.798 2.78859 166.446 2.70059C166.102 2.61259 165.742 2.56859 165.366 2.56859C165.006 2.56859 164.706 2.62059 164.466 2.72459C164.226 2.82859 164.046 2.97659 163.926 3.16859C163.806 3.35259 163.746 3.56859 163.746 3.81659C163.746 4.10459 163.806 4.34459 163.926 4.53659C164.046 4.72859 164.242 4.90059 164.514 5.05259C164.786 5.20459 165.154 5.36859 165.618 5.54459C166.122 5.72859 166.546 5.92859 166.89 6.14459C167.242 6.35259 167.506 6.60459 167.682 6.90059C167.866 7.19659 167.958 7.56859 167.958 8.01659ZM171.916 5.95259L174.148 1.74059H175.312L172.456 6.98459V10.3086H171.376V7.03259L168.52 1.74059H169.696L171.916 5.95259ZM181.34 8.01659C181.34 8.52859 181.216 8.96459 180.968 9.32459C180.72 9.67659 180.364 9.94859 179.9 10.1406C179.444 10.3326 178.904 10.4286 178.28 10.4286C177.96 10.4286 177.652 10.4126 177.356 10.3806C177.068 10.3486 176.804 10.3046 176.564 10.2486C176.324 10.1846 176.112 10.1086 175.928 10.0206V8.98859C176.216 9.11659 176.572 9.23259 176.996 9.33659C177.428 9.44059 177.872 9.49259 178.328 9.49259C178.752 9.49259 179.108 9.43659 179.396 9.32459C179.684 9.21259 179.9 9.05259 180.044 8.84459C180.188 8.63659 180.26 8.39259 180.26 8.11259C180.26 7.83259 180.2 7.59659 180.08 7.40459C179.96 7.21259 179.752 7.03659 179.456 6.87659C179.168 6.70859 178.764 6.53259 178.244 6.34859C177.876 6.21259 177.552 6.06859 177.272 5.91659C177 5.75659 176.772 5.57659 176.588 5.37659C176.404 5.17659 176.264 4.94859 176.168 4.69259C176.08 4.43659 176.036 4.14059 176.036 3.80459C176.036 3.34859 176.152 2.96059 176.384 2.64059C176.616 2.31259 176.936 2.06059 177.344 1.88459C177.76 1.70859 178.236 1.62059 178.772 1.62059C179.244 1.62059 179.676 1.66459 180.068 1.75259C180.46 1.84059 180.816 1.95659 181.136 2.10059L180.8 3.02459C180.504 2.89659 180.18 2.78859 179.828 2.70059C179.484 2.61259 179.124 2.56859 178.748 2.56859C178.388 2.56859 178.088 2.62059 177.848 2.72459C177.608 2.82859 177.428 2.97659 177.308 3.16859C177.188 3.35259 177.128 3.56859 177.128 3.81659C177.128 4.10459 177.188 4.34459 177.308 4.53659C177.428 4.72859 177.624 4.90059 177.896 5.05259C178.168 5.20459 178.536 5.36859 179 5.54459C179.504 5.72859 179.928 5.92859 180.272 6.14459C180.624 6.35259 180.888 6.60459 181.064 6.90059C181.248 7.19659 181.34 7.56859 181.34 8.01659ZM185.778 10.3086H184.698V2.68859H182.022V1.74059H188.442V2.68859H185.778V10.3086ZM194.522 10.3086H189.734V1.74059H194.522V2.68859H190.814V5.36459H194.306V6.30059H190.814V9.36059H194.522V10.3086ZM200.182 10.3086L197.362 2.79659H197.314C197.33 2.95659 197.342 3.16059 197.35 3.40859C197.366 3.65659 197.378 3.92859 197.386 4.22459C197.394 4.51259 197.398 4.80859 197.398 5.11259V10.3086H196.402V1.74059H197.998L200.638 8.76059H200.686L203.374 1.74059H204.958V10.3086H203.89V5.04059C203.89 4.76059 203.894 4.48459 203.902 4.21259C203.91 3.93259 203.922 3.67259 203.938 3.43259C203.954 3.18459 203.966 2.97659 203.974 2.80859H203.926L201.07 10.3086H200.182ZM212.149 8.01659C212.149 8.52859 212.025 8.96459 211.777 9.32459C211.529 9.67659 211.173 9.94859 210.709 10.1406C210.253 10.3326 209.713 10.4286 209.089 10.4286C208.769 10.4286 208.461 10.4126 208.165 10.3806C207.877 10.3486 207.613 10.3046 207.373 10.2486C207.133 10.1846 206.921 10.1086 206.737 10.0206V8.98859C207.025 9.11659 207.381 9.23259 207.805 9.33659C208.237 9.44059 208.681 9.49259 209.137 9.49259C209.561 9.49259 209.917 9.43659 210.205 9.32459C210.493 9.21259 210.709 9.05259 210.853 8.84459C210.997 8.63659 211.069 8.39259 211.069 8.11259C211.069 7.83259 211.009 7.59659 210.889 7.40459C210.769 7.21259 210.561 7.03659 210.265 6.87659C209.977 6.70859 209.573 6.53259 209.053 6.34859C208.685 6.21259 208.361 6.06859 208.081 5.91659C207.809 5.75659 207.581 5.57659 207.397 5.37659C207.213 5.17659 207.073 4.94859 206.977 4.69259C206.889 4.43659 206.845 4.14059 206.845 3.80459C206.845 3.34859 206.961 2.96059 207.193 2.64059C207.425 2.31259 207.745 2.06059 208.153 1.88459C208.569 1.70859 209.045 1.62059 209.581 1.62059C210.053 1.62059 210.485 1.66459 210.877 1.75259C211.269 1.84059 211.625 1.95659 211.945 2.10059L211.609 3.02459C211.313 2.89659 210.989 2.78859 210.637 2.70059C210.293 2.61259 209.933 2.56859 209.557 2.56859C209.197 2.56859 208.897 2.62059 208.657 2.72459C208.417 2.82859 208.237 2.97659 208.117 3.16859C207.997 3.35259 207.937 3.56859 207.937 3.81659C207.937 4.10459 207.997 4.34459 208.117 4.53659C208.237 4.72859 208.433 4.90059 208.705 5.05259C208.977 5.20459 209.345 5.36859 209.809 5.54459C210.313 5.72859 210.737 5.92859 211.081 6.14459C211.433 6.35259 211.697 6.60459 211.873 6.90059C212.057 7.19659 212.149 7.56859 212.149 8.01659ZM116.748 24.3086H113.652V23.6846L114.66 23.4566V16.6046L113.652 16.3646V15.7406H116.748V16.3646L115.74 16.6046V23.4566L116.748 23.6846V24.3086ZM121.114 24.3086H120.034V16.6886H117.358V15.7406H123.778V16.6886H121.114V24.3086ZM132.333 22.0166C132.333 22.5286 132.209 22.9646 131.961 23.3246C131.713 23.6766 131.357 23.9486 130.893 24.1406C130.437 24.3326 129.897 24.4286 129.273 24.4286C128.953 24.4286 128.645 24.4126 128.349 24.3806C128.061 24.3486 127.797 24.3046 127.557 24.2486C127.317 24.1846 127.105 24.1086 126.921 24.0206V22.9886C127.209 23.1166 127.565 23.2326 127.989 23.3366C128.421 23.4406 128.865 23.4926 129.321 23.4926C129.745 23.4926 130.101 23.4366 130.389 23.3246C130.677 23.2126 130.893 23.0526 131.037 22.8446C131.181 22.6366 131.253 22.3926 131.253 22.1126C131.253 21.8326 131.193 21.5966 131.073 21.4046C130.953 21.2126 130.745 21.0366 130.449 20.8766C130.161 20.7086 129.757 20.5326 129.237 20.3486C128.869 20.2126 128.545 20.0686 128.265 19.9166C127.993 19.7566 127.765 19.5766 127.581 19.3766C127.397 19.1766 127.257 18.9486 127.161 18.6926C127.073 18.4366 127.029 18.1406 127.029 17.8046C127.029 17.3486 127.145 16.9606 127.377 16.6406C127.609 16.3126 127.929 16.0606 128.337 15.8846C128.753 15.7086 129.229 15.6206 129.765 15.6206C130.237 15.6206 130.669 15.6646 131.061 15.7526C131.453 15.8406 131.809 15.9566 132.129 16.1006L131.793 17.0246C131.497 16.8966 131.173 16.7886 130.821 16.7006C130.477 16.6126 130.117 16.5686 129.741 16.5686C129.381 16.5686 129.081 16.6206 128.841 16.7246C128.601 16.8286 128.421 16.9766 128.301 17.1686C128.181 17.3526 128.121 17.5686 128.121 17.8166C128.121 18.1046 128.181 18.3446 128.301 18.5366C128.421 18.7286 128.617 18.9006 128.889 19.0526C129.161 19.2046 129.529 19.3686 129.993 19.5446C130.497 19.7286 130.921 19.9286 131.265 20.1446C131.617 20.3526 131.881 20.6046 132.057 20.9006C132.241 21.1966 132.333 21.5686 132.333 22.0166ZM139.507 21.0806C139.507 21.6166 139.435 22.0926 139.291 22.5086C139.155 22.9166 138.955 23.2646 138.691 23.5526C138.435 23.8406 138.119 24.0606 137.743 24.2126C137.375 24.3566 136.963 24.4286 136.507 24.4286C136.083 24.4286 135.691 24.3566 135.331 24.2126C134.971 24.0606 134.659 23.8406 134.395 23.5526C134.131 23.2646 133.923 22.9166 133.771 22.5086C133.627 22.0926 133.555 21.6166 133.555 21.0806C133.555 20.3686 133.675 19.7686 133.915 19.2806C134.155 18.7846 134.499 18.4086 134.947 18.1526C135.395 17.8886 135.927 17.7566 136.543 17.7566C137.127 17.7566 137.639 17.8886 138.079 18.1526C138.527 18.4086 138.875 18.7846 139.123 19.2806C139.379 19.7686 139.507 20.3686 139.507 21.0806ZM134.647 21.0806C134.647 21.5846 134.711 22.0246 134.839 22.4006C134.975 22.7686 135.183 23.0526 135.463 23.2526C135.743 23.4526 136.099 23.5526 136.531 23.5526C136.963 23.5526 137.319 23.4526 137.599 23.2526C137.879 23.0526 138.083 22.7686 138.211 22.4006C138.347 22.0246 138.415 21.5846 138.415 21.0806C138.415 20.5686 138.347 20.1326 138.211 19.7726C138.075 19.4126 137.867 19.1366 137.587 18.9446C137.315 18.7446 136.959 18.6446 136.519 18.6446C135.863 18.6446 135.387 18.8606 135.091 19.2926C134.795 19.7246 134.647 20.3206 134.647 21.0806ZM142.236 24.3086H141.18V15.1886H142.236V24.3086ZM149.65 17.8766V24.3086H148.786L148.63 23.4566H148.582C148.446 23.6806 148.27 23.8646 148.054 24.0086C147.838 24.1526 147.602 24.2566 147.346 24.3206C147.09 24.3926 146.822 24.4286 146.542 24.4286C146.03 24.4286 145.598 24.3486 145.246 24.1886C144.902 24.0206 144.642 23.7646 144.466 23.4206C144.29 23.0766 144.202 22.6326 144.202 22.0886V17.8766H145.27V22.0166C145.27 22.5286 145.386 22.9126 145.618 23.1686C145.85 23.4246 146.21 23.5526 146.698 23.5526C147.178 23.5526 147.554 23.4646 147.826 23.2886C148.106 23.1046 148.302 22.8406 148.414 22.4966C148.534 22.1446 148.594 21.7206 148.594 21.2246V17.8766H149.65ZM153.84 23.5646C154 23.5646 154.164 23.5526 154.332 23.5286C154.5 23.4966 154.636 23.4646 154.74 23.4326V24.2366C154.628 24.2926 154.468 24.3366 154.26 24.3686C154.052 24.4086 153.852 24.4286 153.66 24.4286C153.324 24.4286 153.012 24.3726 152.724 24.2606C152.444 24.1406 152.216 23.9366 152.04 23.6486C151.864 23.3606 151.776 22.9566 151.776 22.4366V18.6926H150.864V18.1886L151.788 17.7686L152.208 16.4006H152.832V17.8766H154.692V18.6926H152.832V22.4126C152.832 22.8046 152.924 23.0966 153.108 23.2886C153.3 23.4726 153.544 23.5646 153.84 23.5646ZM157.084 17.8766V24.3086H156.028V17.8766H157.084ZM156.568 15.4646C156.728 15.4646 156.868 15.5206 156.988 15.6326C157.116 15.7366 157.18 15.9046 157.18 16.1366C157.18 16.3606 157.116 16.5286 156.988 16.6406C156.868 16.7526 156.728 16.8086 156.568 16.8086C156.392 16.8086 156.244 16.7526 156.124 16.6406C156.004 16.5286 155.944 16.3606 155.944 16.1366C155.944 15.9046 156.004 15.7366 156.124 15.6326C156.244 15.5206 156.392 15.4646 156.568 15.4646ZM164.714 21.0806C164.714 21.6166 164.642 22.0926 164.498 22.5086C164.362 22.9166 164.162 23.2646 163.898 23.5526C163.642 23.8406 163.326 24.0606 162.95 24.2126C162.582 24.3566 162.17 24.4286 161.714 24.4286C161.29 24.4286 160.898 24.3566 160.538 24.2126C160.178 24.0606 159.866 23.8406 159.602 23.5526C159.338 23.2646 159.13 22.9166 158.978 22.5086C158.834 22.0926 158.762 21.6166 158.762 21.0806C158.762 20.3686 158.882 19.7686 159.122 19.2806C159.362 18.7846 159.706 18.4086 160.154 18.1526C160.602 17.8886 161.134 17.7566 161.75 17.7566C162.334 17.7566 162.846 17.8886 163.286 18.1526C163.734 18.4086 164.082 18.7846 164.33 19.2806C164.586 19.7686 164.714 20.3686 164.714 21.0806ZM159.854 21.0806C159.854 21.5846 159.918 22.0246 160.046 22.4006C160.182 22.7686 160.39 23.0526 160.67 23.2526C160.95 23.4526 161.306 23.5526 161.738 23.5526C162.17 23.5526 162.526 23.4526 162.806 23.2526C163.086 23.0526 163.29 22.7686 163.418 22.4006C163.554 22.0246 163.622 21.5846 163.622 21.0806C163.622 20.5686 163.554 20.1326 163.418 19.7726C163.282 19.4126 163.074 19.1366 162.794 18.9446C162.522 18.7446 162.166 18.6446 161.726 18.6446C161.07 18.6446 160.594 18.8606 160.298 19.2926C160.002 19.7246 159.854 20.3206 159.854 21.0806ZM169.483 17.7566C170.251 17.7566 170.831 17.9446 171.223 18.3206C171.615 18.6886 171.811 19.2886 171.811 20.1206V24.3086H170.767V20.1926C170.767 19.6726 170.651 19.2846 170.419 19.0286C170.187 18.7726 169.823 18.6446 169.327 18.6446C168.615 18.6446 168.123 18.8446 167.851 19.2446C167.579 19.6446 167.443 20.2206 167.443 20.9726V24.3086H166.387V17.8766H167.239L167.395 18.7526H167.455C167.599 18.5286 167.775 18.3446 167.983 18.2006C168.199 18.0486 168.435 17.9366 168.691 17.8646C168.947 17.7926 169.211 17.7566 169.483 17.7566ZM177.993 22.5326C177.993 22.9486 177.889 23.2966 177.681 23.5766C177.473 23.8566 177.177 24.0686 176.793 24.2126C176.409 24.3566 175.953 24.4286 175.425 24.4286C174.977 24.4286 174.589 24.3926 174.261 24.3206C173.941 24.2486 173.657 24.1486 173.409 24.0206V23.0606C173.665 23.1886 173.973 23.3086 174.333 23.4206C174.701 23.5246 175.073 23.5766 175.449 23.5766C175.985 23.5766 176.373 23.4926 176.613 23.3246C176.853 23.1486 176.973 22.9166 176.973 22.6286C176.973 22.4686 176.929 22.3246 176.841 22.1966C176.753 22.0686 176.593 21.9406 176.361 21.8126C176.137 21.6846 175.813 21.5406 175.389 21.3806C174.973 21.2206 174.617 21.0606 174.321 20.9006C174.025 20.7406 173.797 20.5486 173.637 20.3246C173.477 20.1006 173.397 19.8126 173.397 19.4606C173.397 18.9166 173.617 18.4966 174.057 18.2006C174.505 17.9046 175.089 17.7566 175.809 17.7566C176.201 17.7566 176.565 17.7966 176.901 17.8766C177.245 17.9486 177.565 18.0526 177.861 18.1886L177.501 19.0286C177.325 18.9486 177.137 18.8806 176.937 18.8246C176.745 18.7606 176.549 18.7126 176.349 18.6806C176.149 18.6406 175.945 18.6206 175.737 18.6206C175.305 18.6206 174.973 18.6926 174.741 18.8366C174.517 18.9726 174.405 19.1606 174.405 19.4006C174.405 19.5766 174.457 19.7286 174.561 19.8566C174.665 19.9766 174.837 20.0966 175.077 20.2166C175.325 20.3286 175.653 20.4646 176.061 20.6246C176.469 20.7766 176.817 20.9326 177.105 21.0926C177.393 21.2526 177.613 21.4486 177.765 21.6806C177.917 21.9046 177.993 22.1886 177.993 22.5326Z" fill="#003768"/>
</svg>
