<svg width="236" height="112" viewBox="0 0 236 112" fill="none" xmlns="http://www.w3.org/2000/svg">
<mask id="mask0_2034_356" style="mask-type:alpha" maskUnits="userSpaceOnUse" x="0" y="0" width="236" height="112">
<rect x="0.516235" y="0.811523" width="234.968" height="110.497" fill="#D9D9D9"/>
</mask>
<g mask="url(#mask0_2034_356)">
<path d="M74.0436 9.31091C74.8022 11.0344 75.0609 13.0655 75.0399 15.0581V46.021C75.0364 49.7511 75.9104 53.621 77.945 56.6379C79.9551 59.6444 83.2307 61.7559 87.66 61.7384H118.742C126.625 61.7908 132.39 57.2532 135.253 50.4922C138.724 42.7908 137.791 30.0029 133.998 23.8292L134.036 23.8957C129.908 17.1521 121.958 12.8208 114.274 12.8068C112.995 12.8103 105.297 13.1354 103.94 13.1284C98.5601 12.999 94.9419 12.4187 91.0055 8.88791C89.4359 14.5232 92.5647 21.8296 99.1369 21.9415L99.5285 21.931C108.834 22.0149 120.2 20.4697 125.912 29.552C130.726 38.4839 126.482 52.6386 114.732 52.5233H92.7849C87.8033 52.4604 84.727 49.9748 84.6535 44.9338C84.5906 44.8219 84.7165 12.0622 84.6675 11.9328C85.2514 3.46582 75.1553 -4.45581 70.2296 5.44448C71.9111 6.29398 73.3654 7.63289 74.0436 9.31091Z" fill="white"/>
<path d="M167.407 13.8701C167.253 12.8702 167.155 12.0662 166.729 11.2552H166.732C164.691 5.65128 156.413 4.16205 153.574 9.98616C154.476 10.6014 155.29 11.1048 156.018 12.0627C157.779 14.4783 158.059 16.908 158.139 19.9703C158.328 29.958 158.569 37.7923 158.129 47.2346C158.01 49.7656 156.273 52.0659 153.787 52.5448C153.57 52.5868 153.35 52.6147 153.123 52.6322V26.8187C153.102 24.7807 152.773 22.8055 152.018 21.0611H152.022L152.015 21.0471C152.001 21.0191 151.994 20.9841 151.98 20.9562H151.976C150.169 15.4607 141.321 14.0868 138.905 19.834C141.419 21.3512 142.985 24.043 143.265 27.0984L143.296 27.1893V57.6732C143.908 65.4306 136.486 68.9964 129.641 68.7691L90.7043 68.7796C84.0342 68.8985 72.9348 68.1888 72.2356 77.1242L72.2321 77.3095C72.2391 80.0503 74.4415 82.1058 76.8571 83.214C78.5492 79.442 82.6044 78.3513 86.4638 78.4002H136.126C146.802 78.4771 153.06 71.1917 152.987 60.9594H155.969C164.184 61.2215 168.005 53.0937 167.806 45.9271H167.809C167.924 42.8088 168.41 20.4248 167.407 13.8701Z" fill="white"/>
<path d="M182.347 33.3905C182.347 27.7516 182.343 23.6789 182.343 16.9879C182.343 15.5091 182.347 13.8975 182.347 12.1181C182.277 6.38491 179.368 1.10266 173.978 0.8125H173.974H173.946H173.813C171.076 0.819492 169.014 3.02189 167.909 5.43753C171.667 7.12253 172.817 11.1812 172.723 15.0337V42.5881C172.618 45.4267 174.963 47.346 177.543 47.311C180.081 47.3355 182.396 45.4966 182.347 42.693C182.343 39.0188 182.347 35.9984 182.347 33.3905Z" fill="white"/>
<path d="M24.6221 92.2328L26.3945 93.9668L28.2789 92.0825L26.3736 90.2227L24.6221 91.9322L22.8671 90.2227L20.9863 92.0825L22.8881 93.9668L24.6221 92.2328Z" fill="white"/>
<path d="M39.5093 109.277L37.7543 107.564L35.8735 109.424L37.7753 111.309L39.5093 109.575L41.2852 111.309L43.1661 109.424L41.2643 107.564L39.5093 109.277Z" fill="white"/>
<path d="M51.8698 94.7133L53.6458 96.4473L55.5266 94.563L53.6248 92.7031L51.8698 94.4161L50.1149 92.7031L48.2341 94.563L50.1394 96.4473L51.8698 94.7133Z" fill="white"/>
<path d="M88.1213 95.8445C87.3347 95.8445 86.3873 96.0613 85.2756 96.4878L85.7231 98.5608C86.695 98.3476 87.3871 98.2427 87.7997 98.2427C88.5548 98.2427 89.3448 98.4664 90.1733 98.9139C90.9984 99.3649 92.2744 100.267 94.0013 101.62C90.9494 103.018 87.7332 103.714 84.3562 103.714L84.3457 103.724L84.3353 103.714H80.1857C79.3571 103.714 78.5811 103.493 77.8539 103.053C77.9238 102.668 77.9623 102.287 77.9623 101.92V95.46L75.6515 95.7816V101.193C75.6515 102.861 74.858 103.693 73.2778 103.693C72.5367 103.693 71.8096 103.553 71.0964 103.266C71.2083 102.84 71.2677 102.389 71.2677 101.92V97.7043L68.936 98.0259L68.9569 101.193C68.9569 102.861 68.1564 103.693 66.5623 103.693C65.9365 103.693 65.2723 103.553 64.5731 103.266C64.685 102.84 64.7444 102.396 64.7444 101.941V97.7253L62.4127 98.0469L62.4337 101.214C62.4337 102.882 61.6366 103.714 60.039 103.714H55.8929C54.8791 103.714 53.9387 103.41 53.0682 102.794C53.1137 102.511 53.1347 102.224 53.1347 101.941V97.7253L50.8239 98.0469V101.214C50.8239 102.099 50.5792 102.735 50.0863 103.126C49.5934 103.518 48.8278 103.714 47.786 103.714L47.7755 103.724L47.7685 103.714H43.6189C42.6051 103.714 41.6647 103.41 40.7943 102.794C40.8397 102.511 40.8607 102.224 40.8607 101.941V97.7253L38.5499 98.0469V101.214C38.5499 102.099 38.3052 102.735 37.8123 103.126C37.3194 103.518 36.5538 103.714 35.512 103.714L35.5015 103.724L35.491 103.714H31.3449C30.7157 103.714 30.2577 103.56 29.9746 103.245C29.6879 102.931 29.5446 102.41 29.5446 101.683L29.5236 94.6489L27.2163 94.9671V96.2326C26.2864 95.8865 25.4125 95.7152 24.5839 95.7152C23.1436 95.7152 21.9516 96.25 21.0042 97.3093C20.0533 98.372 19.5814 99.6515 19.5814 101.151C19.5814 102.633 20.0498 103.875 20.9902 104.871C21.9341 105.867 23.1297 106.367 24.5839 106.367C25.7236 106.367 26.9891 106.01 28.37 105.297C29.0097 105.881 30.0025 106.175 31.3414 106.175H35.491C37.6864 106.175 39.2071 105.647 40.0462 104.591C41.1438 105.647 42.3359 106.175 43.6189 106.175H47.7685C49.9604 106.175 51.4811 105.647 52.3201 104.591C53.4178 105.647 54.6099 106.175 55.8929 106.175H60.0425C61.6086 106.175 62.7902 105.776 63.5908 104.979C64.6745 105.762 65.7338 106.154 66.7755 106.154C68.1739 106.154 69.2786 105.769 70.0896 105C71.3027 105.769 72.4878 106.154 73.6414 106.154C75.1376 106.154 76.2563 105.738 76.9974 104.913C77.9238 105.755 78.9866 106.175 80.1857 106.175H84.3353L84.3457 106.164L84.3562 106.175C86.3524 106.175 88.2366 105.916 90.0125 105.395C91.7884 104.874 93.7741 104.021 95.9695 102.84L96.375 100.508C93.9209 98.5818 92.1695 97.3233 91.1137 96.7325C90.058 96.1417 89.0617 95.8445 88.1213 95.8445ZM24.5839 104.035C23.7554 104.021 23.0807 103.738 22.5528 103.182C22.025 102.623 21.7628 101.931 21.7628 101.106C21.7628 100.235 22.0355 99.5047 22.5843 98.9139C23.1332 98.3231 23.8358 98.0259 24.6923 98.0259C25.3321 98.0259 26.1816 98.2112 27.2373 98.5818V101.941C27.2373 102.497 27.2793 102.99 27.3666 103.417C26.4507 103.843 25.5278 104.049 24.5839 104.035Z" fill="white"/>
<path d="M88.8018 109.256L90.7281 111.116L92.6089 109.256L90.6826 107.372L88.8018 109.256Z" fill="white"/>
<path d="M122.162 101.127C122.162 102.854 121.368 103.717 119.788 103.717C119.764 103.717 119.774 103.741 119.753 103.745C119.736 103.741 119.743 103.717 119.725 103.717C118.141 103.717 117.348 102.854 117.348 101.127V90.562L115.02 90.8871L115.041 101.815C115.041 102.27 115.069 102.647 115.125 102.948C114.457 103.462 113.67 103.717 112.772 103.717H108.626H107.451V100.679C107.451 99.1829 107.018 97.9768 106.158 97.0644C105.294 96.1519 104.175 95.6975 102.809 95.6975C101.354 95.6975 100.152 96.1974 99.1938 97.1937C98.2394 98.1935 97.7605 99.459 97.7605 101.001C97.7605 102.57 98.2219 103.825 99.1414 104.766C100.061 105.706 101.277 106.175 102.788 106.175H105.098C104.941 107.105 104.361 107.776 103.354 108.199C102.351 108.618 100.875 108.828 98.9386 108.828L99.1938 110.775C104.427 110.775 107.171 109.241 107.427 106.175H108.626H112.775C113.887 106.175 114.939 105.72 115.939 104.808C116.694 105.72 117.963 106.175 119.746 106.175L119.757 106.164L119.767 106.175C122.917 106.175 124.494 104.724 124.494 101.815V90.562L122.183 90.8871L122.162 101.127ZM105.14 103.759C105.039 103.759 104.721 103.769 104.189 103.79C103.655 103.811 103.273 103.825 103.043 103.825C102.074 103.825 101.305 103.574 100.735 103.074C100.162 102.574 99.879 101.857 99.879 100.917C99.879 100.074 100.138 99.3891 100.659 98.8612C101.179 98.3369 101.826 98.0712 102.595 98.0712C103.35 98.0712 103.962 98.3229 104.434 98.8298C104.906 99.3367 105.14 100.011 105.14 100.85V103.759Z" fill="white"/>
<path d="M127.954 106.177H130.286V90.564L127.954 90.8856V106.177Z" fill="white"/>
<path d="M145.45 94.7983L147.226 96.5322L149.107 94.6514L147.205 92.7881L145.45 94.5011L143.695 92.7881L141.814 94.6514L143.72 96.5322L145.45 94.7983Z" fill="white"/>
<path d="M150.965 101.214C150.965 102.881 150.168 103.717 148.57 103.717H143.48C142.253 103.717 141.337 103.479 140.732 103.011C140.124 102.539 139.823 101.798 139.823 100.787C139.823 100.214 139.921 99.3295 140.12 98.1339L138.114 97.8787C137.813 99.2316 137.663 100.431 137.663 101.469C137.663 103.025 138.107 104.199 138.998 104.989C139.89 105.78 141.197 106.175 142.924 106.175H148.591C150.143 106.161 151.314 105.793 152.097 105.073C152.884 104.353 153.275 103.308 153.275 101.941V95.4805L150.944 95.8021L150.965 101.214Z" fill="white"/>
<path d="M171.045 95.5891C169.535 95.5891 168.311 96.0645 167.368 97.0119C166.427 97.9593 165.955 99.2108 165.955 100.763C165.955 101.564 166.221 102.546 166.749 103.713H165.19H165.186H161.04L161.03 103.724L161.019 103.713C159.435 103.713 158.645 102.853 158.645 101.127V90.562L156.314 90.8836L156.335 101.812C156.335 104.72 157.904 106.175 161.04 106.175H165.186H165.19H170C171.867 106.175 173.338 105.675 174.415 104.678C175.492 103.678 176.03 102.312 176.03 100.571C176.03 99.1444 175.555 97.9593 174.607 97.0119C173.66 96.0645 172.471 95.5891 171.045 95.5891ZM172.737 102.892C172.094 103.441 171.22 103.713 170.105 103.713H169.122C168.525 102.661 168.224 101.647 168.224 100.676C168.224 99.9065 168.49 99.2457 169.028 98.6899C169.559 98.134 170.206 97.8544 170.961 97.8544C171.744 97.8544 172.398 98.1166 172.919 98.6375C173.44 99.1548 173.699 99.8156 173.699 100.613C173.699 101.584 173.38 102.343 172.737 102.892Z" fill="white"/>
<path d="M202.609 92.7671L200.686 90.9072L198.805 92.7671L200.728 94.6514L202.609 92.7671Z" fill="white"/>
<path d="M216.727 90.8875L216.706 101.13C216.706 102.857 215.913 103.717 214.333 103.717C214.308 103.717 214.319 103.742 214.298 103.745C214.28 103.742 214.287 103.717 214.266 103.717C212.686 103.717 211.892 102.857 211.892 101.13V90.5659L209.564 90.8875L209.585 101.816C209.585 102.27 209.613 102.648 209.669 102.948C209.001 103.462 208.215 103.717 207.316 103.717H206.568C205.726 103.717 205.1 103.546 204.687 103.207C204.841 103.134 205.079 103.015 205.394 102.84L205.799 100.512C203.345 98.5854 201.594 97.3269 200.538 96.7361C199.482 96.1453 198.482 95.8482 197.542 95.8482C196.759 95.8482 195.811 96.0614 194.7 96.4914L195.147 98.5645C196.116 98.3512 196.808 98.2463 197.22 98.2463C197.975 98.2463 198.769 98.4666 199.597 98.9176C200.422 99.365 201.699 100.267 203.425 101.623C200.374 103.022 197.157 103.717 193.78 103.717L193.77 103.728L193.759 103.717H189.61C188.725 103.717 187.89 103.462 187.107 102.948C187.163 102.665 187.194 102.33 187.194 101.945L187.173 100.211C187.173 98.7707 186.729 97.6241 185.845 96.7676C184.96 95.9111 183.821 95.4846 182.426 95.4846H180.583V97.8793H181.908C182.765 97.8793 183.464 98.1205 184.006 98.5959C184.548 99.0749 184.827 99.6971 184.838 100.47L184.862 101.536C184.862 102.221 184.656 102.756 184.244 103.141C183.828 103.525 183.237 103.717 182.468 103.717H177.098L177.507 106.178H182.447C184.226 106.178 185.502 105.717 186.275 104.787C187.271 105.717 188.383 106.178 189.61 106.178H193.759L193.77 106.168L193.78 106.178C195.434 106.178 197 106 198.482 105.644C199.965 105.287 201.541 104.717 203.209 103.934C203.667 105.43 204.778 106.178 206.547 106.178H207.316C208.428 106.178 209.484 105.72 210.484 104.808C211.239 105.72 212.508 106.178 214.291 106.178L214.301 106.168L214.312 106.178C217.461 106.178 219.038 104.724 219.038 101.816V90.5659L216.727 90.8875Z" fill="white"/>
<path d="M202.041 73.4745C202.041 71.335 200.307 69.6045 198.171 69.6045H161.066C156.039 69.4997 156.021 77.4528 161.062 77.3444C173.2 77.3479 185.855 77.3444 198.185 77.3444C200.324 77.3444 202.041 75.6139 202.041 73.4745Z" fill="white"/>
<path d="M218.808 57.9876C218.808 55.8482 217.075 54.1177 214.939 54.1177H177.515C172.488 54.0129 172.471 61.9659 177.512 61.8576C189.649 61.8611 202.623 61.8576 214.953 61.8576C217.092 61.8576 218.808 60.1271 218.808 57.9876Z" fill="white"/>
<path d="M235.486 42.4974C235.486 40.3579 233.752 38.6275 231.616 38.6275H193.735C188.708 38.5226 188.687 46.4757 193.732 46.3673C205.869 46.3708 219.3 46.3673 231.63 46.3673C233.77 46.3673 235.486 44.6369 235.486 42.4974Z" fill="white"/>
<path d="M25.7809 45.5801C20.1384 46.7722 16.646 49.7018 16.646 49.7018L19.7644 50.7051C19.7644 50.7051 22.5052 47.4749 25.7809 45.5801Z" fill="white"/>
<path d="M47.6793 46.3322V46.3636C47.085 46.3322 46.5676 46.3636 46.0188 46.4126C40.6107 46.7727 36.7093 48.3843 34.6572 49.7791C37.9468 49.842 41.7853 49.7022 46.0188 49.7791C46.6445 49.7791 47.3332 49.7791 47.994 49.8106C50.2173 49.8595 52.5386 49.9854 54.9193 50.2021L53.853 46.7552C51.6296 46.4126 49.5601 46.2867 47.6793 46.3322Z" fill="white"/>
<path d="M62.7949 8.63666C60.0576 8.07732 56.5827 10.3112 55.492 12.2933C59.0997 14.3489 60.0226 18.4705 59.9912 22.2775C59.9912 22.2985 59.9422 48.909 59.9213 59.9699C59.9178 62.8365 58.1733 65.406 55.513 66.4827L55.4396 66.5142C54.4607 66.9092 53.405 67.077 52.3527 67.0211C42.4559 66.4932 37.9672 61.8577 25.8261 60.9383C35.8033 58.4108 47.7487 59.3686 58.0789 60.4384L57.5301 58.6974C43.0292 55.0582 22.4491 54.0724 10.231 60.7215C8.25938 55.3764 11.8636 52.1182 13.4927 50.9261C13.2095 45.8012 24.5711 38.2326 43.7249 36.0687C51.1746 36.4043 55.5305 30.1747 53.9119 23.2634C49.5211 26.2733 39.5229 26.6508 36.1843 26.6823C26.1862 26.3502 17.0829 32.0729 12.8809 40.928C2.44226 42.7598 -3.24551 56.4251 3.30574 64.8257V64.8432L7.79793 70.3631C21.0333 55.0687 32.2305 81.3436 48.5492 81.7387C58.6907 83.179 69.7516 75.1385 69.7516 64.8886V19.362C69.7691 15.0201 68.2379 9.74835 62.7949 8.63666Z" fill="white"/>
<path d="M28.0497 25.2976C30.8115 24.6718 33.0978 24.6263 33.6711 24.6263L33.8109 24.6298L37.9081 24.7277L34.136 23.1231C34.0766 23.1021 31.8183 22.1373 28.8083 22.1338C27.1443 22.1338 25.2495 22.4344 23.3967 23.3783C21.5474 24.3222 19.7645 25.9198 18.3522 28.4159L15.9645 32.6284L19.5583 29.3842C22.0578 27.1259 25.2845 25.9198 28.0497 25.2976Z" fill="white"/>
<path d="M35.8281 21.7951C36.3769 22.0434 36.8349 22.2846 37.153 22.4664C37.3103 22.5538 37.4327 22.6272 37.5166 22.6761L37.604 22.7321L37.6285 22.746L40.8273 24.8261L39.352 21.3092C39.3135 21.2218 38.9884 20.4457 38.1843 19.6312C37.3942 18.8166 36.0448 17.9706 34.1955 17.9776C33.4089 17.9776 32.5454 18.1279 31.612 18.46L26.0499 20.4387L31.9476 20.7394C33.2795 20.8023 34.7338 21.2987 35.8281 21.7951Z" fill="white"/>
</g>
</svg>
