<svg width="473" height="623" viewBox="0 0 473 623" fill="none" xmlns="http://www.w3.org/2000/svg">
<path d="M117.141 347.784C139.96 366.638 143.173 400.439 124.333 423.254C105.493 446.089 71.7146 449.304 48.915 430.451C26.0964 411.598 22.883 377.796 41.7424 354.981C60.5826 332.147 94.3611 328.931 117.161 347.784H117.141Z" fill="#540000"/>
<path d="M421.55 347.784C444.368 366.638 447.582 400.439 428.722 423.254C409.882 446.089 376.104 449.304 353.304 430.451C330.485 411.598 327.272 377.796 346.112 354.981C364.952 332.147 398.731 328.931 421.531 347.784H421.55Z" fill="#00467A"/>
<path d="M117.141 41.7709C139.96 60.624 143.173 94.4257 124.333 117.241C105.493 140.075 71.7146 143.291 48.915 124.418C26.0964 105.565 22.883 71.7636 41.7424 48.9485C60.5826 26.1142 94.3611 22.8986 117.161 41.7518L117.141 41.7709Z" fill="#00467A"/>
<path d="M422.927 41.7709C445.745 60.624 448.959 94.4257 430.119 117.241C411.278 140.075 377.5 143.291 354.7 124.418C331.882 105.565 328.668 71.7636 347.508 48.9485C366.349 26.1142 400.127 22.8986 422.927 41.7518V41.7709Z" fill="#540000"/>
<path d="M83.9559 365.566C83.9559 365.93 83.6116 366.217 83.1717 366.217C82.7318 366.217 82.3875 365.93 82.3875 365.566V360.896C82.3875 360.532 82.7318 360.245 83.1717 360.245C83.6116 360.245 83.9559 360.532 83.9559 360.896V365.566Z" fill="white"/>
<path d="M67.6213 372.763C67.8891 373.012 67.87 373.471 67.5831 373.777C67.2962 374.103 66.8371 374.16 66.5694 373.93L63.1073 370.811C62.8396 370.562 62.8587 370.102 63.1456 369.796C63.4325 369.471 63.8916 369.413 64.1593 369.643L67.6213 372.763Z" fill="white"/>
<path d="M62.0554 389.721C62.4188 389.683 62.7439 390.008 62.7822 390.429C62.8204 390.869 62.5718 391.233 62.2084 391.271L57.5605 391.769C57.1971 391.807 56.8719 391.482 56.8337 391.061C56.7954 390.62 57.0441 390.257 57.4075 390.218L62.0554 389.721Z" fill="white"/>
<path d="M105.665 389.893C105.302 389.855 105.053 389.472 105.091 389.051C105.13 388.611 105.474 388.305 105.818 388.343L110.466 388.822C110.83 388.86 111.078 389.243 111.04 389.664C111.002 390.104 110.657 390.41 110.313 390.372L105.665 389.874V389.893Z" fill="white"/>
<path d="M100.214 372.897C99.9462 373.145 99.4871 373.069 99.2002 372.744C98.9133 372.418 98.8942 371.959 99.162 371.729L102.624 368.609C102.892 368.36 103.351 368.437 103.638 368.762C103.925 369.088 103.944 369.547 103.676 369.777L100.214 372.897Z" fill="white"/>
<path d="M99.7549 385.357C99.7549 376.151 92.2954 368.686 83.0952 368.686C73.8951 368.686 66.4355 376.151 66.4355 385.357C66.4355 392.114 70.4522 397.932 76.2286 400.555V404V408.517C76.2286 410.01 77.2614 411.273 78.6195 411.503C78.7151 411.905 78.8681 412.307 79.0403 412.689C79.7671 414.297 80.9912 415.235 81.9667 415.235H84.2237C85.1992 415.235 86.4233 414.297 87.1502 412.689C87.3223 412.307 87.4562 411.905 87.571 411.503C88.929 411.273 89.9618 410.029 89.9618 408.517V402.411V400.555C95.7382 397.932 99.7549 392.114 99.7549 385.357ZM76.8789 377.031C74.335 378.926 72.6901 381.95 72.6901 385.357C72.6901 388.554 74.1437 391.406 76.4007 393.32C76.7067 393.568 76.745 394.028 76.5346 394.334C76.2668 394.736 75.7504 394.793 75.387 394.506C72.7857 392.305 71.1216 389.013 71.1216 385.357C71.1216 381.433 73.0152 377.969 75.9225 375.787C76.2668 375.519 76.7833 375.596 77.0319 375.959C77.2614 376.304 77.2041 376.782 76.8598 377.031H76.8789ZM88.3934 408.498C88.3934 409.014 88.1639 409.474 87.8005 409.723C87.6092 409.857 87.3606 409.952 87.1119 409.952H79.0976C78.849 409.952 78.6003 409.876 78.4091 409.723C78.0457 409.474 77.8161 409.014 77.8161 408.498V403.981H88.3934V408.498Z" fill="white"/>
<path d="M440.83 207.736C359.386 207.736 290.72 153.033 269.489 78.3479C264.038 104.034 254.379 128.17 241.296 150.009C282.4 218.148 357.053 263.759 442.379 263.817V207.717C441.863 207.717 441.346 207.736 440.811 207.736H440.83Z" fill="#00467A"/>
<path d="M390.946 270.458C365.813 264.812 342.21 255.146 320.845 242.169C253.365 283.454 208.282 357.795 208.225 442.72H264.286C264.286 442.203 264.267 441.687 264.267 441.151C264.267 360.609 317.67 292.546 390.965 270.458H390.946Z" fill="#540000"/>
<path d="M230.546 322.214C189.442 254.055 114.789 208.444 29.4436 208.387V264.487C29.96 264.487 30.4765 264.468 31.012 264.468C112.474 264.468 181.16 319.189 202.372 393.913C207.823 368.208 217.463 344.072 230.565 322.214H230.546Z" fill="#00467A"/>
<path d="M78.1986 202.53C103.886 207.985 128.025 217.631 149.849 230.742C217.96 189.61 263.54 114.887 263.617 29.502H207.555C207.555 30.0187 207.574 30.5355 207.574 31.0715C207.574 112.609 152.871 181.341 78.1986 202.549V202.53Z" fill="#540000"/>
<path d="M144.665 29.5212L139.023 11.07L133.476 17.1566C116.778 4.33264 96.1972 -1.61998 75.1574 0.389748C53.0847 2.49517 33.1542 13.0797 19.0193 30.1911C5.13296 46.9962 -1.52328 68.2419 0.293801 89.9852C2.11088 111.69 12.1335 131.481 28.5446 145.76L30.3425 143.693C-2.76654 114.867 -6.80236 65.7919 21.1424 31.9328C34.7991 15.3957 54.0601 5.15567 75.406 3.1268C95.6808 1.19364 115.496 6.89743 131.602 19.1663L125.749 25.5783L144.646 29.502L144.665 29.5212Z" fill="#540000"/>
<path d="M442.532 144.764L460.971 139.118L454.888 133.567C467.684 116.858 473.633 96.2631 471.624 75.2089C469.52 53.121 458.943 33.1769 441.863 19.0323C425.05 5.13648 403.838 -1.52432 382.109 0.294002C360.419 2.11232 340.642 12.1418 326.373 28.5641L328.439 30.3633C357.225 -2.76843 406.267 -6.82616 440.103 21.1377C456.629 34.8038 466.862 54.0972 468.889 75.4577C470.821 95.7463 465.121 115.576 452.861 131.692L446.453 125.835L442.532 144.745V144.764Z" fill="#00467A"/>
<path d="M327.368 442.701L333.01 461.152L338.557 455.066C355.255 467.87 375.836 473.823 396.876 471.813C418.948 469.708 438.879 459.123 453.014 442.012C466.9 425.188 473.556 403.961 471.739 382.218C469.922 360.513 459.9 340.722 443.488 326.443L441.69 328.511C474.8 357.317 478.854 406.392 450.91 440.251C437.253 456.788 417.973 467.028 396.627 469.057C376.352 470.99 356.537 465.306 340.432 453.018L346.284 446.606L327.387 442.682L327.368 442.701Z" fill="#540000"/>
<path d="M285.69 536.297C289.859 565.601 269.489 592.742 240.186 596.914C210.903 601.087 183.78 580.702 179.611 551.38C175.441 522.076 195.811 494.935 225.114 490.762C254.398 486.59 281.52 506.974 285.69 536.297Z" fill="#00467A"/>
<path d="M149.524 528.105L139.425 544.546L147.649 544.68C149.084 565.677 158.246 585.066 173.662 599.536C189.844 614.715 210.96 622.677 233.109 621.969C254.895 621.26 275.208 612.207 290.318 596.474C305.391 580.76 313.596 560.127 313.443 538.383H310.689C310.995 582.31 276.872 617.815 233.014 619.212C211.591 619.902 191.163 612.207 175.517 597.527C160.656 583.592 151.819 564.95 150.384 544.738L159.068 544.872L149.524 528.105Z" fill="#540000"/>
<path d="M310.727 541.809L302.043 541.426L312.621 525.272L321.687 542.307L313.462 541.943" fill="#540000"/>
<path d="M29.501 327.458L11.0624 333.104L17.1448 338.655C4.32967 355.345 -1.61886 375.94 0.389486 397.014C2.49347 419.101 13.0708 439.046 30.1704 453.19C46.9832 467.086 68.1951 473.747 89.9235 471.928C111.614 470.11 131.391 460.081 145.66 443.658L143.594 441.859C114.808 474.991 65.766 479.049 31.9301 451.085C15.4043 437.419 5.17127 418.125 3.14379 396.765C1.21195 376.476 6.91184 356.647 19.1723 340.531L25.5799 346.388L29.501 327.477V327.458Z" fill="#00467A"/>
<path d="M83.0378 50.3264C83.0378 50.3264 74.8896 63.8586 55.4756 64.6624V77.0462C55.4756 111.901 83.0378 115.977 83.0378 115.977C83.0378 115.977 110.6 111.901 110.6 77.0462V64.6624C91.1859 63.8586 83.0378 50.3264 83.0378 50.3264Z" fill="white"/>
<path d="M90.1531 81.6973H75.9225C74.2011 81.6973 72.7856 83.0945 72.7856 84.8363V97.5837C72.7856 99.3063 74.1819 100.723 75.9225 100.723H90.1531C91.8745 100.723 93.2899 99.3254 93.2899 97.5837V84.8363C93.2899 83.1136 91.8936 81.6973 90.1531 81.6973ZM81.6989 96.3013L77.9882 92.5881L79.3654 91.21L81.4311 93.2771L86.4807 86.1187L88.0873 87.2479L81.6989 96.3013Z" fill="#540000"/>
<path d="M78.562 75.2469C78.562 72.7778 80.5704 70.7681 83.0378 70.7681C85.5052 70.7681 87.5135 72.7778 87.5135 75.2469V80.0511H89.4836V75.2469C89.4836 71.6868 86.5954 68.7966 83.0378 68.7966C79.4801 68.7966 76.5919 71.6868 76.5919 75.2469V80.0511H78.562V75.2469Z" fill="#540000"/>
<path d="M358.277 90.0617C358.277 93.0285 353.017 100.857 353.017 100.857C353.017 100.857 347.757 93.0285 347.757 90.0617C347.757 87.095 350.11 84.6833 353.017 84.6833C355.924 84.6833 358.277 87.095 358.277 90.0617Z" fill="#E5D9D0"/>
<path d="M355.485 89.8322C355.485 91.2294 354.375 92.3587 353.017 92.3587C351.659 92.3587 350.55 91.2294 350.55 89.8322C350.55 88.4349 351.659 87.3057 353.017 87.3057C354.375 87.3057 355.485 88.4349 355.485 89.8322Z" fill="white"/>
<path d="M429.239 76.1084C429.239 79.0751 423.979 86.9035 423.979 86.9035C423.979 86.9035 418.719 79.0751 418.719 76.1084C418.719 73.1416 421.071 70.73 423.979 70.73C426.886 70.73 429.239 73.1416 429.239 76.1084Z" fill="#E5D9D0"/>
<path d="M424.629 80.1662V81.3338H423.424V80.1662H424.629ZM424.591 74.5964L424.457 79.2858H423.577L423.443 74.5964H424.61H424.591Z" fill="white"/>
<path d="M388.67 105.278C388.67 108.245 383.41 116.073 383.41 116.073C383.41 116.073 378.15 108.245 378.15 105.278C378.15 102.312 380.503 99.8999 383.41 99.8999C386.317 99.8999 388.67 102.312 388.67 105.278Z" fill="#E5D9D0"/>
<path d="M385.878 105.049C385.878 106.446 384.768 107.575 383.41 107.575C382.052 107.575 380.943 106.446 380.943 105.049C380.943 103.651 382.052 102.522 383.41 102.522C384.768 102.522 385.878 103.651 385.878 105.049Z" fill="white"/>
<path d="M411.871 63.8013C411.871 65.8493 408.237 71.266 408.237 71.266C408.237 71.266 404.603 65.8493 404.603 63.8013C404.603 61.7533 406.229 60.0881 408.237 60.0881C410.245 60.0881 411.871 61.7533 411.871 63.8013Z" fill="#E5D9D0"/>
<path d="M409.939 63.629C409.939 64.586 409.174 65.3707 408.218 65.3707C407.281 65.3707 406.497 64.586 406.497 63.629C406.497 62.672 407.262 61.8872 408.218 61.8872C409.174 61.8872 409.939 62.672 409.939 63.629Z" fill="white"/>
<path d="M375.281 71.5532C375.281 73.7735 371.322 79.6687 371.322 79.6687C371.322 79.6687 367.362 73.7926 367.362 71.5532C367.362 69.333 369.141 67.5146 371.322 67.5146C373.502 67.5146 375.281 69.3138 375.281 71.5532Z" fill="#E5D9D0"/>
<path d="M373.177 71.381C373.177 72.4337 372.355 73.2758 371.322 73.2758C370.289 73.2758 369.466 72.4337 369.466 71.381C369.466 70.3283 370.289 69.4861 371.322 69.4861C372.355 69.4861 373.177 70.3283 373.177 71.381Z" fill="white"/>
<path d="M413.363 94.5789C413.363 97.1819 408.734 104.053 408.734 104.053C408.734 104.053 404.106 97.1819 404.106 94.5789C404.106 91.9758 406.171 89.8704 408.734 89.8704C411.278 89.8704 413.363 91.9758 413.363 94.5789Z" fill="#E5D9D0"/>
<path d="M410.915 94.3682C410.915 95.5932 409.939 96.5885 408.734 96.5885C407.529 96.5885 406.554 95.5932 406.554 94.3682C406.554 93.1432 407.529 92.1479 408.734 92.1479C409.939 92.1479 410.915 93.1432 410.915 94.3682Z" fill="white"/>
<path d="M385.418 116.111C385.418 116.379 384.519 116.609 383.391 116.609C382.262 116.609 381.364 116.399 381.364 116.111C381.364 115.824 382.262 115.614 383.391 115.614C384.519 115.614 385.418 115.824 385.418 116.111Z" stroke="#C2B4AA" stroke-width="0.04" stroke-miterlimit="10"/>
<path opacity="0.91" d="M383.391 116.973C384.976 116.973 386.26 116.63 386.26 116.207C386.26 115.784 384.976 115.442 383.391 115.442C381.806 115.442 380.522 115.784 380.522 116.207C380.522 116.63 381.806 116.973 383.391 116.973Z" stroke="#C2B4AA" stroke-width="0.04" stroke-miterlimit="10"/>
<path opacity="0.82" d="M383.391 117.356C385.44 117.356 387.102 116.884 387.102 116.303C387.102 115.722 385.44 115.25 383.391 115.25C381.342 115.25 379.68 115.722 379.68 116.303C379.68 116.884 381.342 117.356 383.391 117.356Z" stroke="#C2B4AA" stroke-width="0.04" stroke-miterlimit="10"/>
<path opacity="0.73" d="M383.391 117.738C385.895 117.738 387.924 117.139 387.924 116.399C387.924 115.659 385.895 115.059 383.391 115.059C380.887 115.059 378.858 115.659 378.858 116.399C378.858 117.139 380.887 117.738 383.391 117.738Z" stroke="#C2B4AA" stroke-width="0.03" stroke-miterlimit="10"/>
<path opacity="0.64" d="M383.391 118.102C386.359 118.102 388.766 117.382 388.766 116.494C388.766 115.606 386.359 114.886 383.391 114.886C380.423 114.886 378.016 115.606 378.016 116.494C378.016 117.382 380.423 118.102 383.391 118.102Z" stroke="#C2B4AA" stroke-width="0.03" stroke-miterlimit="10"/>
<path opacity="0.55" d="M383.391 118.485C386.824 118.485 389.607 117.636 389.607 116.59C389.607 115.543 386.824 114.695 383.391 114.695C379.958 114.695 377.175 115.543 377.175 116.59C377.175 117.636 379.958 118.485 383.391 118.485Z" stroke="#C2B4AA" stroke-width="0.02" stroke-miterlimit="10"/>
<path opacity="0.45" d="M383.391 118.868C387.289 118.868 390.449 117.891 390.449 116.686C390.449 115.481 387.289 114.504 383.391 114.504C379.493 114.504 376.333 115.481 376.333 116.686C376.333 117.891 379.493 118.868 383.391 118.868Z" stroke="#C2B4AA" stroke-width="0.02" stroke-miterlimit="10"/>
<path opacity="0.36" d="M383.391 119.231C387.754 119.231 391.29 118.135 391.29 116.781C391.29 115.428 387.754 114.332 383.391 114.332C379.028 114.332 375.491 115.428 375.491 116.781C375.491 118.135 379.028 119.231 383.391 119.231Z" stroke="#C2B4AA" stroke-width="0.02" stroke-miterlimit="10"/>
<path opacity="0.27" d="M383.391 119.614C388.219 119.614 392.132 118.389 392.132 116.877C392.132 115.366 388.219 114.14 383.391 114.14C378.563 114.14 374.65 115.366 374.65 116.877C374.65 118.389 378.563 119.614 383.391 119.614Z" stroke="#C2B4AA" stroke-width="0.01" stroke-miterlimit="10"/>
<path opacity="0.18" d="M383.391 119.978C388.673 119.978 392.955 118.632 392.955 116.973C392.955 115.313 388.673 113.968 383.391 113.968C378.109 113.968 373.827 115.313 373.827 116.973C373.827 118.632 378.109 119.978 383.391 119.978Z" stroke="#C2B4AA" stroke-width="0.01" stroke-miterlimit="10"/>
<path d="M372.661 79.707C372.661 79.8792 372.068 80.0324 371.322 80.0324C370.576 80.0324 369.983 79.8792 369.983 79.707C369.983 79.5347 370.576 79.3816 371.322 79.3816C372.068 79.3816 372.661 79.5347 372.661 79.707Z" stroke="#C2B4AA" stroke-width="0.03" stroke-miterlimit="10"/>
<path opacity="0.91" d="M369.428 79.7834C369.428 79.4963 370.27 79.2666 371.322 79.2666C372.374 79.2666 373.215 79.4963 373.215 79.7834C373.215 80.0705 372.374 80.3002 371.322 80.3002C370.27 80.3002 369.428 80.0705 369.428 79.7834Z" stroke="#C2B4AA" stroke-width="0.03" stroke-miterlimit="10"/>
<path opacity="0.82" d="M371.322 80.53C372.674 80.53 373.77 80.2215 373.77 79.8409C373.77 79.4604 372.674 79.1519 371.322 79.1519C369.97 79.1519 368.874 79.4604 368.874 79.8409C368.874 80.2215 369.97 80.53 371.322 80.53Z" stroke="#C2B4AA" stroke-width="0.02" stroke-miterlimit="10"/>
<path opacity="0.73" d="M371.322 80.7787C372.98 80.7787 374.325 80.3845 374.325 79.8983C374.325 79.412 372.98 79.0178 371.322 79.0178C369.663 79.0178 368.319 79.412 368.319 79.8983C368.319 80.3845 369.663 80.7787 371.322 80.7787Z" stroke="#C2B4AA" stroke-width="0.02" stroke-miterlimit="10"/>
<path opacity="0.64" d="M371.322 81.0277C373.287 81.0277 374.879 80.5479 374.879 79.9559C374.879 79.3639 373.287 78.884 371.322 78.884C369.357 78.884 367.764 79.3639 367.764 79.9559C367.764 80.5479 369.357 81.0277 371.322 81.0277Z" stroke="#C2B4AA" stroke-width="0.02" stroke-miterlimit="10"/>
<path opacity="0.55" d="M371.322 81.2766C373.593 81.2766 375.434 80.7196 375.434 80.0324C375.434 79.3453 373.593 78.7883 371.322 78.7883C369.051 78.7883 367.209 79.3453 367.209 80.0324C367.209 80.7196 369.051 81.2766 371.322 81.2766Z" stroke="#C2B4AA" stroke-width="0.02" stroke-miterlimit="10"/>
<path opacity="0.45" d="M371.322 81.5253C373.899 81.5253 375.989 80.8826 375.989 80.0898C375.989 79.297 373.899 78.6543 371.322 78.6543C368.744 78.6543 366.655 79.297 366.655 80.0898C366.655 80.8826 368.744 81.5253 371.322 81.5253Z" stroke="#C2B4AA" stroke-width="0.01" stroke-miterlimit="10"/>
<path opacity="0.36" d="M371.322 81.7741C374.206 81.7741 376.543 81.0457 376.543 80.1472C376.543 79.2487 374.206 78.5203 371.322 78.5203C368.438 78.5203 366.1 79.2487 366.1 80.1472C366.1 81.0457 368.438 81.7741 371.322 81.7741Z" stroke="#C2B4AA" stroke-width="0.01" stroke-miterlimit="10"/>
<path d="M409.557 71.3234C409.557 71.4957 408.964 71.6488 408.218 71.6488C407.472 71.6488 406.879 71.4957 406.879 71.3234C406.879 71.1512 407.472 70.998 408.218 70.998C408.964 70.998 409.557 71.1512 409.557 71.3234Z" stroke="#C2B4AA" stroke-width="0.03" stroke-miterlimit="10"/>
<path opacity="0.91" d="M406.344 71.3998C406.344 71.1127 407.185 70.8831 408.237 70.8831C409.289 70.8831 410.131 71.1127 410.131 71.3998C410.131 71.6869 409.289 71.9166 408.237 71.9166C407.185 71.9166 406.344 71.6869 406.344 71.3998Z" stroke="#C2B4AA" stroke-width="0.03" stroke-miterlimit="10"/>
<path opacity="0.82" d="M408.218 72.1464C409.57 72.1464 410.666 71.8379 410.666 71.4574C410.666 71.0768 409.57 70.7683 408.218 70.7683C406.866 70.7683 405.77 71.0768 405.77 71.4574C405.77 71.8379 406.866 72.1464 408.218 72.1464Z" stroke="#C2B4AA" stroke-width="0.02" stroke-miterlimit="10"/>
<path opacity="0.73" d="M408.218 72.3952C409.876 72.3952 411.221 72.001 411.221 71.5147C411.221 71.0285 409.876 70.6343 408.218 70.6343C406.559 70.6343 405.215 71.0285 405.215 71.5147C405.215 72.001 406.559 72.3952 408.218 72.3952Z" stroke="#C2B4AA" stroke-width="0.02" stroke-miterlimit="10"/>
<path opacity="0.64" d="M408.218 72.6632C410.183 72.6632 411.776 72.1834 411.776 71.5914C411.776 70.9994 410.183 70.5195 408.218 70.5195C406.253 70.5195 404.66 70.9994 404.66 71.5914C404.66 72.1834 406.253 72.6632 408.218 72.6632Z" stroke="#C2B4AA" stroke-width="0.02" stroke-miterlimit="10"/>
<path opacity="0.55" d="M408.218 72.893C410.489 72.893 412.33 72.336 412.33 71.6489C412.33 70.9618 410.489 70.4048 408.218 70.4048C405.947 70.4048 404.106 70.9618 404.106 71.6489C404.106 72.336 405.947 72.893 408.218 72.893Z" stroke="#C2B4AA" stroke-width="0.02" stroke-miterlimit="10"/>
<path opacity="0.45" d="M408.218 73.1418C410.796 73.1418 412.885 72.4991 412.885 71.7063C412.885 70.9135 410.796 70.2708 408.218 70.2708C405.64 70.2708 403.551 70.9135 403.551 71.7063C403.551 72.4991 405.64 73.1418 408.218 73.1418Z" stroke="#C2B4AA" stroke-width="0.01" stroke-miterlimit="10"/>
<path opacity="0.36" d="M408.218 73.3906C411.102 73.3906 413.44 72.6622 413.44 71.7636C413.44 70.8651 411.102 70.1367 408.218 70.1367C405.334 70.1367 402.996 70.8651 402.996 71.7636C402.996 72.6622 405.334 73.3906 408.218 73.3906Z" stroke="#C2B4AA" stroke-width="0.01" stroke-miterlimit="10"/>
<path d="M410.513 104.053C410.513 104.302 409.71 104.493 408.696 104.493C407.682 104.493 406.879 104.302 406.879 104.053C406.879 103.804 407.682 103.613 408.696 103.613C409.71 103.613 410.513 103.804 410.513 104.053Z" stroke="#C2B4AA" stroke-width="0.04" stroke-miterlimit="10"/>
<path opacity="0.91" d="M408.696 104.819C410.112 104.819 411.259 104.511 411.259 104.13C411.259 103.749 410.112 103.441 408.696 103.441C407.281 103.441 406.133 103.749 406.133 104.13C406.133 104.511 407.281 104.819 408.696 104.819Z" stroke="#C2B4AA" stroke-width="0.03" stroke-miterlimit="10"/>
<path opacity="0.82" d="M408.696 105.163C410.524 105.163 412.005 104.743 412.005 104.225C412.005 103.708 410.524 103.288 408.696 103.288C406.869 103.288 405.387 103.708 405.387 104.225C405.387 104.743 406.869 105.163 408.696 105.163Z" stroke="#C2B4AA" stroke-width="0.03" stroke-miterlimit="10"/>
<path opacity="0.73" d="M408.696 105.489C410.946 105.489 412.77 104.958 412.77 104.302C412.77 103.647 410.946 103.115 408.696 103.115C406.446 103.115 404.622 103.647 404.622 104.302C404.622 104.958 406.446 105.489 408.696 105.489Z" stroke="#C2B4AA" stroke-width="0.03" stroke-miterlimit="10"/>
<path opacity="0.64" d="M408.696 105.814C411.358 105.814 413.516 105.171 413.516 104.379C413.516 103.586 411.358 102.943 408.696 102.943C406.034 102.943 403.876 103.586 403.876 104.379C403.876 105.171 406.034 105.814 408.696 105.814Z" stroke="#C2B4AA" stroke-width="0.03" stroke-miterlimit="10"/>
<path opacity="0.55" d="M408.696 106.178C411.77 106.178 414.262 105.415 414.262 104.474C414.262 103.534 411.77 102.771 408.696 102.771C405.622 102.771 403.13 103.534 403.13 104.474C403.13 105.415 405.622 106.178 408.696 106.178Z" stroke="#C2B4AA" stroke-width="0.02" stroke-miterlimit="10"/>
<path opacity="0.45" d="M408.696 106.503C412.182 106.503 415.008 105.629 415.008 104.551C415.008 103.473 412.182 102.599 408.696 102.599C405.21 102.599 402.384 103.473 402.384 104.551C402.384 105.629 405.21 106.503 408.696 106.503Z" stroke="#C2B4AA" stroke-width="0.02" stroke-miterlimit="10"/>
<path opacity="0.36" d="M408.696 106.848C412.605 106.848 415.773 105.862 415.773 104.647C415.773 103.431 412.605 102.446 408.696 102.446C404.788 102.446 401.619 103.431 401.619 104.647C401.619 105.862 404.788 106.848 408.696 106.848Z" stroke="#C2B4AA" stroke-width="0.02" stroke-miterlimit="10"/>
<path opacity="0.27" d="M408.696 107.173C413.017 107.173 416.519 106.076 416.519 104.723C416.519 103.37 413.017 102.273 408.696 102.273C404.376 102.273 400.873 103.37 400.873 104.723C400.873 106.076 404.376 107.173 408.696 107.173Z" stroke="#C2B4AA" stroke-width="0.01" stroke-miterlimit="10"/>
<path d="M352.998 101.603C354.509 101.603 355.733 101.303 355.733 100.933C355.733 100.563 354.509 100.263 352.998 100.263C351.487 100.263 350.263 100.563 350.263 100.933C350.263 101.303 351.487 101.603 352.998 101.603Z" stroke="#C2B4AA" stroke-width="0.06" stroke-miterlimit="10"/>
<path opacity="0.91" d="M352.998 102.082C355.132 102.082 356.862 101.619 356.862 101.048C356.862 100.477 355.132 100.015 352.998 100.015C350.864 100.015 349.134 100.477 349.134 101.048C349.134 101.619 350.864 102.082 352.998 102.082Z" stroke="#C2B4AA" stroke-width="0.05" stroke-miterlimit="10"/>
<path opacity="0.82" d="M352.998 102.599C355.755 102.599 357.99 101.964 357.99 101.182C357.99 100.4 355.755 99.7659 352.998 99.7659C350.241 99.7659 348.006 100.4 348.006 101.182C348.006 101.964 350.241 102.599 352.998 102.599Z" stroke="#C2B4AA" stroke-width="0.05" stroke-miterlimit="10"/>
<path opacity="0.73" d="M352.998 103.115C356.389 103.115 359.138 102.31 359.138 101.316C359.138 100.323 356.389 99.5171 352.998 99.5171C349.607 99.5171 346.858 100.323 346.858 101.316C346.858 102.31 349.607 103.115 352.998 103.115Z" stroke="#C2B4AA" stroke-width="0.04" stroke-miterlimit="10"/>
<path opacity="0.64" d="M352.998 103.613C357.012 103.613 360.266 102.636 360.266 101.431C360.266 100.226 357.012 99.249 352.998 99.249C348.984 99.249 345.73 100.226 345.73 101.431C345.73 102.636 348.984 103.613 352.998 103.613Z" stroke="#C2B4AA" stroke-width="0.04" stroke-miterlimit="10"/>
<path opacity="0.55" d="M352.998 104.13C357.635 104.13 361.395 102.982 361.395 101.565C361.395 100.149 357.635 99.0002 352.998 99.0002C348.361 99.0002 344.601 100.149 344.601 101.565C344.601 102.982 348.361 104.13 352.998 104.13Z" stroke="#C2B4AA" stroke-width="0.03" stroke-miterlimit="10"/>
<path opacity="0.45" d="M352.998 104.627C358.269 104.627 362.542 103.316 362.542 101.699C362.542 100.082 358.269 98.7705 352.998 98.7705C347.727 98.7705 343.454 100.082 343.454 101.699C343.454 103.316 347.727 104.627 352.998 104.627Z" stroke="#C2B4AA" stroke-width="0.03" stroke-miterlimit="10"/>
<path opacity="0.36" d="M352.998 105.125C358.893 105.125 363.671 103.643 363.671 101.814C363.671 99.9852 358.893 98.5027 352.998 98.5027C347.104 98.5027 342.325 99.9852 342.325 101.814C342.325 103.643 347.104 105.125 352.998 105.125Z" stroke="#C2B4AA" stroke-width="0.02" stroke-miterlimit="10"/>
<path opacity="0.27" d="M352.998 105.642C359.516 105.642 364.799 103.988 364.799 101.948C364.799 99.9078 359.516 98.2539 352.998 98.2539C346.48 98.2539 341.197 99.9078 341.197 101.948C341.197 103.988 346.48 105.642 352.998 105.642Z" stroke="#C2B4AA" stroke-width="0.02" stroke-miterlimit="10"/>
<path opacity="0.18" d="M352.998 106.159C360.139 106.159 365.928 104.333 365.928 102.082C365.928 99.8302 360.139 98.0049 352.998 98.0049C345.857 98.0049 340.068 99.8302 340.068 102.082C340.068 104.333 345.857 106.159 352.998 106.159Z" stroke="#C2B4AA" stroke-width="0.01" stroke-miterlimit="10"/>
<path opacity="0.09" d="M352.998 106.656C360.773 106.656 367.076 104.66 367.076 102.197C367.076 99.7337 360.773 97.7371 352.998 97.7371C345.223 97.7371 338.92 99.7337 338.92 102.197C338.92 104.66 345.223 106.656 352.998 106.656Z" stroke="#C2B4AA" stroke-width="0.01" stroke-miterlimit="10"/>
<path d="M426.198 86.9419C426.198 87.2482 425.203 87.4779 423.96 87.4779C422.716 87.4779 421.722 87.229 421.722 86.9419C421.722 86.6548 422.716 86.406 423.96 86.406C425.203 86.406 426.198 86.6548 426.198 86.9419Z" stroke="#C2B4AA" stroke-width="0.05" stroke-miterlimit="10"/>
<path opacity="0.91" d="M423.979 87.8989C425.722 87.8989 427.135 87.5219 427.135 87.0568C427.135 86.5916 425.722 86.2146 423.979 86.2146C422.236 86.2146 420.823 86.5916 420.823 87.0568C420.823 87.5219 422.236 87.8989 423.979 87.8989Z" stroke="#C2B4AA" stroke-width="0.04" stroke-miterlimit="10"/>
<path opacity="0.82" d="M423.979 88.32C426.229 88.32 428.053 87.7972 428.053 87.1524C428.053 86.5076 426.229 85.9849 423.979 85.9849C421.729 85.9849 419.905 86.5076 419.905 87.1524C419.905 87.7972 421.729 88.32 423.979 88.32Z" stroke="#C2B4AA" stroke-width="0.04" stroke-miterlimit="10"/>
<path opacity="0.73" d="M423.979 88.7411C426.746 88.7411 428.99 88.0812 428.99 87.2673C428.99 86.4533 426.746 85.7935 423.979 85.7935C421.211 85.7935 418.967 86.4533 418.967 87.2673C418.967 88.0812 421.211 88.7411 423.979 88.7411Z" stroke="#C2B4AA" stroke-width="0.03" stroke-miterlimit="10"/>
<path opacity="0.64" d="M423.979 89.1431C427.253 89.1431 429.908 88.3461 429.908 87.363C429.908 86.38 427.253 85.583 423.979 85.583C420.704 85.583 418.049 86.38 418.049 87.363C418.049 88.3461 420.704 89.1431 423.979 89.1431Z" stroke="#C2B4AA" stroke-width="0.03" stroke-miterlimit="10"/>
<path opacity="0.55" d="M423.979 89.5642C427.761 89.5642 430.826 88.6301 430.826 87.4779C430.826 86.3257 427.761 85.3916 423.979 85.3916C420.197 85.3916 417.131 86.3257 417.131 87.4779C417.131 88.6301 420.197 89.5642 423.979 89.5642Z" stroke="#C2B4AA" stroke-width="0.03" stroke-miterlimit="10"/>
<path opacity="0.45" d="M423.979 89.9662C428.278 89.9662 431.763 88.895 431.763 87.5737C431.763 86.2523 428.278 85.1812 423.979 85.1812C419.679 85.1812 416.194 86.2523 416.194 87.5737C416.194 88.895 419.679 89.9662 423.979 89.9662Z" stroke="#C2B4AA" stroke-width="0.02" stroke-miterlimit="10"/>
<path opacity="0.36" d="M423.979 90.3873C428.785 90.3873 432.682 89.179 432.682 87.6885C432.682 86.198 428.785 84.9897 423.979 84.9897C419.172 84.9897 415.276 86.198 415.276 87.6885C415.276 89.179 419.172 90.3873 423.979 90.3873Z" stroke="#C2B4AA" stroke-width="0.02" stroke-miterlimit="10"/>
<path opacity="0.27" d="M423.979 90.7891C429.292 90.7891 433.6 89.4437 433.6 87.7841C433.6 86.1244 429.292 84.7791 423.979 84.7791C418.665 84.7791 414.358 86.1244 414.358 87.7841C414.358 89.4437 418.665 90.7891 423.979 90.7891Z" stroke="#C2B4AA" stroke-width="0.02" stroke-miterlimit="10"/>
<path opacity="0.18" d="M423.979 91.2101C429.81 91.2101 434.537 89.719 434.537 87.8797C434.537 86.0404 429.81 84.5493 423.979 84.5493C418.148 84.5493 413.421 86.0404 413.421 87.8797C413.421 89.719 418.148 91.2101 423.979 91.2101Z" stroke="#C2B4AA" stroke-width="0.01" stroke-miterlimit="10"/>
<path d="M352.96 83.7264C353.782 77.4484 355.905 70.8833 359.807 66.4619C361.739 64.2799 364.455 62.4425 367.076 63.3229C368.472 63.7823 370.461 65.3326 371.15 66.5002" stroke="#E5D0C9" stroke-width="0.13" stroke-miterlimit="10" stroke-dasharray="0.49 0.49 0.49 0.49 0.49 0.49"/>
<path d="M382.989 95.2105C382.492 86.4442 381.517 75.7831 379.068 69.62C377.844 66.5767 375.798 64.5478 373.847 67.2083" stroke="#E5D0C9" stroke-width="0.13" stroke-miterlimit="10" stroke-dasharray="0.53 0.53 0.53 0.53 0.53 0.53"/>
<path d="M408.505 88.7986C406.114 80.2429 401.849 71.936 395.173 65.926C391.004 62.1745 385.112 59.0355 379.489 60.5285C376.926 61.1984 373.923 63.5143 372.144 66.8447" stroke="#E5D0C9" stroke-width="0.13" stroke-miterlimit="10" stroke-dasharray="0.53 0.53 0.53 0.53 0.53 0.53"/>
<path d="M354.318 84.0517C354.624 83.6115 355.006 83.267 355.427 82.9416C358.755 80.4151 363.384 80.0897 367.324 81.4487C371.264 82.8076 374.573 85.6404 377.251 88.9134C379.642 91.8227 381.612 95.1722 382.377 98.8854" stroke="#E5D0C9" stroke-width="0.13" stroke-miterlimit="10" stroke-dasharray="0.48 0.48 0.48 0.48 0.48 0.48"/>
<path d="M384.443 98.7131C385.591 84.6642 389.206 70.0219 396.225 60.7772C398.693 57.5233 401.963 54.9585 404.699 56.6237C405.559 57.1405 406.573 58.2889 407.396 59.5331" stroke="#E5D0C9" stroke-width="0.14" stroke-miterlimit="10" stroke-dasharray="0.57 0.57 0.57 0.57 0.57 0.57"/>
<path d="M386.585 98.7132C388.651 93.8898 391.692 89.5067 395.824 86.5783C397.985 85.047 400.758 83.956 402.862 85.1045C403.991 85.717 405.406 88.0521 405.751 89.1239" stroke="#E5D0C9" stroke-width="0.13" stroke-miterlimit="10" stroke-dasharray="0.53 0.53 0.53 0.53 0.53 0.53"/>
<path d="M386.7 94.7894C389.684 83.5158 396.359 72.6441 407.472 67.3997C410.265 66.079 413.593 65.1794 416.844 65.6962C419.713 66.1556 422.219 67.8208 423.979 69.9836" stroke="#E5D0C9" stroke-width="0.13" stroke-miterlimit="10" stroke-dasharray="0.53 0.53 0.53 0.53 0.53 0.53"/>
<path d="M389.301 413.876C389.301 413.876 389.32 413.876 389.378 413.876C389.416 413.876 389.493 413.857 389.569 413.838C389.646 413.819 389.741 413.78 389.837 413.761C389.932 413.742 390.028 413.704 390.124 413.665C390.219 413.627 390.315 413.589 390.411 413.57C390.506 413.531 390.583 413.493 390.659 413.474C390.812 413.417 390.908 413.378 390.908 413.378C390.908 413.378 391.004 413.34 391.137 413.263C391.214 413.225 391.29 413.187 391.386 413.149C391.482 413.11 391.558 413.053 391.654 412.995C391.75 412.957 391.845 412.9 391.922 412.842C391.998 412.785 392.094 412.747 392.151 412.708C392.228 412.67 392.266 412.632 392.304 412.613C392.342 412.594 392.362 412.574 392.362 412.574C392.362 412.574 392.706 412.842 393.069 413.11C393.433 413.359 393.815 413.608 393.815 413.608C393.815 413.608 393.873 413.57 393.968 413.493C394.064 413.417 394.179 413.321 394.293 413.225C394.408 413.129 394.523 413.034 394.599 412.957C394.676 412.881 394.733 412.823 394.733 412.823C394.733 412.823 394.561 412.402 394.37 412C394.179 411.598 393.968 411.196 393.968 411.196C393.968 411.196 393.987 411.196 394.026 411.139C394.064 411.101 394.102 411.062 394.16 411.005C394.217 410.947 394.274 410.871 394.332 410.794C394.389 410.718 394.466 410.641 394.523 410.546C394.657 410.392 394.772 410.201 394.867 410.086C394.963 409.952 395.02 409.876 395.02 409.876C395.02 409.876 395.02 409.856 395.059 409.818C395.078 409.78 395.116 409.723 395.154 409.665C395.231 409.531 395.345 409.359 395.441 409.167C395.498 409.072 395.537 408.976 395.594 408.899C395.632 408.804 395.671 408.727 395.709 408.651C395.747 408.574 395.766 408.517 395.785 408.478C395.785 408.44 395.804 408.421 395.804 408.421C395.804 408.421 396.244 408.459 396.703 408.478C396.933 408.478 397.162 408.478 397.316 408.478H397.602C397.602 408.478 397.622 408.402 397.66 408.306C397.698 408.191 397.755 408.057 397.794 407.904C397.832 407.751 397.889 407.617 397.908 407.502C397.928 407.387 397.947 407.311 397.947 407.311C397.947 407.311 397.851 407.253 397.717 407.158C397.583 407.062 397.392 406.947 397.201 406.813C396.818 406.564 396.436 406.354 396.436 406.354C396.436 406.354 396.455 406.258 396.474 406.086C396.474 406.009 396.493 405.914 396.512 405.818C396.512 405.722 396.531 405.607 396.55 405.512C396.57 405.301 396.589 405.091 396.589 404.937C396.589 404.861 396.589 404.784 396.589 404.746C396.589 404.708 396.589 404.669 396.589 404.669C396.589 404.669 396.589 404.555 396.589 404.402C396.589 404.248 396.589 404.038 396.57 403.827C396.57 403.617 396.531 403.406 396.512 403.253C396.493 403.1 396.474 402.985 396.474 402.985C396.474 402.985 396.876 402.775 397.258 402.564C397.449 402.449 397.641 402.334 397.794 402.239C397.928 402.143 398.023 402.086 398.023 402.086C398.023 402.086 398.023 402.009 397.985 401.894C397.966 401.779 397.928 401.626 397.889 401.492C397.851 401.339 397.813 401.205 397.775 401.09C397.736 400.975 397.717 400.918 397.717 400.918C397.717 400.918 397.258 400.899 396.818 400.918C396.589 400.918 396.378 400.918 396.206 400.918C396.034 400.918 395.919 400.918 395.919 400.918C395.919 400.918 395.881 400.822 395.824 400.669C395.766 400.516 395.671 400.325 395.575 400.152C395.384 399.77 395.154 399.425 395.154 399.425C395.154 399.425 395.097 399.329 395.02 399.195C394.982 399.138 394.925 399.061 394.867 398.966C394.81 398.889 394.752 398.793 394.676 398.717C394.561 398.545 394.408 398.392 394.313 398.258C394.255 398.2 394.217 398.143 394.179 398.104C394.14 398.066 394.121 398.047 394.121 398.047C394.121 398.047 394.351 397.664 394.542 397.262C394.752 396.86 394.925 396.458 394.925 396.458C394.925 396.458 394.714 396.248 394.485 396.037C394.427 395.98 394.37 395.942 394.313 395.884C394.255 395.846 394.198 395.788 394.16 395.769C394.064 395.693 394.007 395.654 394.007 395.654C394.007 395.654 393.624 395.884 393.241 396.133C392.859 396.382 392.515 396.65 392.515 396.65C392.515 396.65 392.495 396.65 392.457 396.611C392.419 396.592 392.362 396.554 392.304 396.497C392.247 396.458 392.17 396.401 392.075 396.343C391.998 396.286 391.903 396.248 391.807 396.19C391.635 396.076 391.444 395.98 391.29 395.903C391.157 395.827 391.061 395.788 391.061 395.788C391.061 395.788 390.965 395.75 390.831 395.674C390.755 395.635 390.678 395.616 390.583 395.578C390.487 395.54 390.392 395.501 390.296 395.463C390.2 395.425 390.105 395.386 390.009 395.348C389.913 395.31 389.818 395.291 389.76 395.272C389.684 395.252 389.626 395.233 389.569 395.214C389.531 395.214 389.493 395.214 389.493 395.214C389.493 395.214 389.493 394.774 389.435 394.315C389.416 394.085 389.378 393.874 389.359 393.702C389.339 393.53 389.32 393.415 389.32 393.415C389.32 393.415 389.244 393.415 389.129 393.377C389.014 393.358 388.861 393.319 388.727 393.3C388.421 393.243 388.134 393.224 388.134 393.224C388.134 393.224 388.077 393.319 388.001 393.472C387.924 393.626 387.828 393.817 387.733 394.028C387.542 394.449 387.389 394.851 387.389 394.851C387.389 394.851 387.293 394.851 387.121 394.851C386.968 394.851 386.757 394.851 386.547 394.851C386.337 394.851 386.126 394.87 385.973 394.889C385.897 394.889 385.82 394.889 385.782 394.908C385.744 394.908 385.705 394.908 385.705 394.908C385.705 394.908 385.61 394.908 385.438 394.946C385.285 394.965 385.074 395.004 384.864 395.061C384.653 395.118 384.443 395.157 384.309 395.195C384.156 395.233 384.06 395.272 384.06 395.272C384.06 395.272 384.003 395.176 383.888 395.042C383.793 394.908 383.659 394.736 383.525 394.563C383.238 394.219 382.951 393.874 382.951 393.874C382.951 393.874 382.875 393.894 382.779 393.951C382.683 393.989 382.53 394.047 382.396 394.104C382.262 394.161 382.129 394.238 382.014 394.276C381.918 394.334 381.842 394.353 381.842 394.353C381.842 394.353 381.88 394.812 381.956 395.252C381.995 395.482 382.033 395.693 382.052 395.865C382.09 396.037 382.109 396.133 382.109 396.133C382.109 396.133 382.014 396.19 381.88 396.267C381.746 396.343 381.574 396.458 381.402 396.592C381.23 396.707 381.057 396.841 380.943 396.937C380.828 397.033 380.732 397.109 380.732 397.109C380.732 397.109 380.713 397.109 380.675 397.147C380.637 397.167 380.579 397.224 380.522 397.281C380.407 397.396 380.254 397.53 380.101 397.683C379.948 397.836 379.814 397.99 379.699 398.104C379.585 398.219 379.527 398.296 379.527 398.296C379.527 398.296 379.126 398.124 378.686 397.99C378.475 397.913 378.265 397.856 378.093 397.798C377.94 397.76 377.825 397.722 377.825 397.722C377.825 397.722 377.634 397.97 377.481 398.219C377.404 398.353 377.309 398.468 377.251 398.564C377.194 398.659 377.156 398.717 377.156 398.717C377.156 398.717 377.232 398.813 377.328 398.927C377.442 399.061 377.576 399.234 377.729 399.406C378.035 399.75 378.341 400.057 378.341 400.057C378.341 400.057 378.341 400.076 378.303 400.114C378.284 400.152 378.246 400.21 378.227 400.286C378.208 400.363 378.15 400.439 378.112 400.535C378.074 400.631 378.035 400.727 377.997 400.822C377.959 400.918 377.921 401.014 377.882 401.109C377.844 401.205 377.825 401.282 377.787 401.358C377.729 401.511 377.71 401.607 377.71 401.607C377.71 401.607 377.672 401.703 377.634 401.856C377.595 402.009 377.538 402.22 377.5 402.411C377.481 402.507 377.462 402.621 377.442 402.717C377.442 402.813 377.404 402.909 377.404 402.985C377.404 403.062 377.385 403.119 377.366 403.177C377.366 403.215 377.366 403.253 377.366 403.253C377.366 403.253 376.926 403.33 376.486 403.445C376.046 403.559 375.625 403.674 375.625 403.674C375.625 403.674 375.625 403.751 375.625 403.866C375.625 403.923 375.625 403.98 375.625 404.057C375.625 404.134 375.625 404.21 375.625 404.287C375.625 404.593 375.625 404.899 375.625 404.899C375.625 404.899 376.046 405.052 376.486 405.167C376.926 405.282 377.347 405.378 377.347 405.378C377.347 405.378 377.347 405.397 377.347 405.454C377.347 405.493 377.347 405.569 377.366 405.646C377.385 405.799 377.404 406.009 377.462 406.22C377.481 406.316 377.5 406.43 377.519 406.526C377.538 406.622 377.557 406.717 377.576 406.794C377.615 406.947 377.634 407.043 377.634 407.043C377.634 407.043 377.748 407.445 377.901 407.847C377.978 408.038 378.054 408.23 378.112 408.383C378.169 408.517 378.227 408.612 378.227 408.612C378.227 408.612 378.15 408.689 378.016 408.804C377.901 408.919 377.729 409.072 377.576 409.244C377.27 409.569 376.983 409.914 376.983 409.914C376.983 409.914 377.022 409.99 377.079 410.086C377.136 410.182 377.213 410.316 377.289 410.45C377.366 410.584 377.462 410.699 377.519 410.794C377.576 410.89 377.634 410.947 377.634 410.947C377.634 410.947 377.748 410.928 377.901 410.871C378.074 410.833 378.284 410.775 378.494 410.699C378.934 410.565 379.336 410.412 379.336 410.412C379.336 410.412 379.413 410.488 379.508 410.622C379.604 410.756 379.757 410.909 379.891 411.062C380.025 411.215 380.178 411.369 380.292 411.483C380.407 411.598 380.484 411.656 380.484 411.656C380.484 411.656 380.503 411.656 380.541 411.713C380.579 411.751 380.618 411.79 380.694 411.847C380.809 411.943 380.981 412.077 381.153 412.211C381.23 412.268 381.325 412.345 381.402 412.402C381.478 412.46 381.555 412.517 381.631 412.555C381.765 412.651 381.861 412.689 381.861 412.689C381.861 412.689 381.746 413.11 381.67 413.57C381.631 413.799 381.593 414.01 381.574 414.182C381.555 414.354 381.536 414.469 381.536 414.469C381.536 414.469 381.593 414.508 381.708 414.565C381.803 414.622 381.937 414.68 382.09 414.756C382.224 414.814 382.358 414.89 382.473 414.929C382.569 414.967 382.645 415.005 382.645 415.005C382.645 415.005 382.722 414.929 382.836 414.795C382.951 414.68 383.104 414.508 383.238 414.335C383.525 413.991 383.793 413.646 383.793 413.646C383.793 413.646 383.812 413.646 383.869 413.665C383.907 413.665 383.984 413.704 384.06 413.723C384.137 413.742 384.233 413.78 384.309 413.799C384.405 413.819 384.5 413.857 384.615 413.876C384.826 413.933 385.036 413.972 385.189 414.01C385.265 414.01 385.323 414.029 385.38 414.048C385.418 414.048 385.457 414.048 385.457 414.048C385.457 414.048 385.552 414.048 385.724 414.086C385.878 414.086 386.088 414.125 386.298 414.144C386.394 414.144 386.509 414.144 386.604 414.144C386.7 414.144 386.796 414.144 386.872 414.144C386.949 414.144 387.025 414.144 387.063 414.144C387.102 414.144 387.14 414.144 387.14 414.144C387.14 414.144 387.274 414.565 387.446 414.986C387.618 415.407 387.809 415.809 387.809 415.809C387.809 415.809 387.886 415.809 388.001 415.809C388.115 415.809 388.268 415.79 388.421 415.771C388.574 415.752 388.727 415.733 388.842 415.713C388.957 415.694 389.033 415.675 389.033 415.675C389.033 415.675 389.11 415.235 389.167 414.795C389.225 414.354 389.263 413.895 389.263 413.895L389.301 413.876ZM385.591 412.326C385.591 412.326 385.457 412.306 385.38 412.287C385.342 412.287 385.285 412.287 385.246 412.268C385.208 412.268 385.151 412.249 385.093 412.23C384.672 412.134 384.137 411.943 383.62 411.694C383.104 411.445 382.626 411.139 382.282 410.89C382.109 410.775 381.976 410.641 381.88 410.565C381.784 410.488 381.727 410.431 381.727 410.431C381.727 410.431 381.67 410.392 381.574 410.297C381.536 410.258 381.478 410.201 381.421 410.144C381.364 410.086 381.287 410.01 381.21 409.933C380.924 409.627 380.56 409.187 380.273 408.689C379.967 408.21 379.738 407.694 379.585 407.292C379.508 407.081 379.451 406.928 379.413 406.794C379.374 406.679 379.355 406.603 379.355 406.603C379.355 406.603 379.336 406.526 379.298 406.411C379.26 406.296 379.221 406.124 379.183 405.914C379.107 405.493 379.049 404.937 379.049 404.363C379.049 403.789 379.145 403.234 379.221 402.813C379.24 402.717 379.259 402.621 379.279 402.526C379.298 402.449 379.317 402.373 379.336 402.315C379.374 402.2 379.393 402.124 379.393 402.124C379.393 402.124 379.413 402.047 379.451 401.932C379.47 401.875 379.489 401.798 379.527 401.722C379.546 401.645 379.585 401.55 379.642 401.454C379.795 401.052 380.063 400.554 380.369 400.076C380.675 399.597 381.057 399.176 381.344 398.87C381.65 398.564 381.861 398.391 381.861 398.391C381.861 398.391 381.918 398.353 382.014 398.277C382.052 398.238 382.129 398.2 382.186 398.143C382.262 398.085 382.339 398.028 382.415 397.97C382.76 397.722 383.257 397.434 383.774 397.205C384.29 396.975 384.845 396.803 385.265 396.726C385.361 396.707 385.457 396.688 385.552 396.669C385.629 396.669 385.705 396.631 385.782 396.631C385.897 396.631 385.973 396.611 385.973 396.611C385.973 396.611 386.26 396.573 386.681 396.554C387.102 396.554 387.675 396.554 388.23 396.65C388.785 396.745 389.339 396.899 389.741 397.052C389.837 397.09 389.932 397.128 390.009 397.167C390.085 397.205 390.162 397.224 390.219 397.262C390.334 397.32 390.392 397.339 390.392 397.339C390.392 397.339 390.449 397.377 390.564 397.415C390.621 397.454 390.678 397.473 390.755 397.53C390.831 397.568 390.927 397.626 391.004 397.664C391.367 397.875 391.845 398.2 392.266 398.583C392.687 398.966 393.069 399.387 393.318 399.731C393.452 399.904 393.547 400.057 393.605 400.152C393.681 400.248 393.7 400.325 393.7 400.325C393.7 400.325 393.739 400.382 393.796 400.497C393.873 400.593 393.949 400.765 394.045 400.956C394.236 401.339 394.446 401.875 394.599 402.411C394.752 402.966 394.829 403.521 394.867 403.942C394.867 404.057 394.867 404.153 394.867 404.229C394.867 404.325 394.867 404.382 394.867 404.459C394.867 404.574 394.867 404.65 394.867 404.65C394.867 404.65 394.867 404.727 394.867 404.842C394.867 404.957 394.867 405.148 394.829 405.359C394.791 405.78 394.676 406.335 394.504 406.89C394.332 407.426 394.102 407.962 393.892 408.325C393.873 408.364 393.834 408.421 393.815 408.459C393.796 408.498 393.758 408.536 393.739 408.574C393.7 408.651 393.662 408.708 393.624 408.765C393.547 408.861 393.509 408.919 393.509 408.919C393.509 408.919 393.471 408.976 393.394 409.072C393.356 409.129 393.318 409.187 393.261 409.244C393.203 409.321 393.146 409.397 393.088 409.474C392.821 409.799 392.438 410.22 391.998 410.584C391.558 410.947 391.08 411.254 390.717 411.464C390.621 411.522 390.545 411.56 390.468 411.598C390.391 411.637 390.315 411.675 390.258 411.694C390.143 411.751 390.085 411.771 390.085 411.771C390.085 411.771 390.028 411.79 389.913 411.847C389.856 411.866 389.779 411.905 389.703 411.924C389.626 411.943 389.531 411.981 389.435 412.019C389.033 412.153 388.479 412.306 387.924 412.364C387.369 412.44 386.796 412.44 386.375 412.402C386.26 412.402 386.164 412.402 386.088 412.383C386.011 412.383 385.935 412.383 385.858 412.364C385.744 412.345 385.667 412.326 385.667 412.326C385.667 412.326 385.591 412.326 385.476 412.287L385.591 412.326Z" fill="white"/>
<path d="M390.43 401.856L386.968 404.631L383.467 405.091" stroke="white" stroke-width="0.38" stroke-miterlimit="10" stroke-linecap="round"/>
<path d="M387.714 404.746C387.637 405.148 387.274 405.416 386.872 405.358C386.47 405.282 386.203 404.918 386.26 404.516C386.337 404.114 386.7 403.846 387.102 403.904C387.503 403.98 387.771 404.344 387.714 404.746Z" fill="white"/>
<path d="M387.006 411.139C390.703 411.139 393.701 408.14 393.701 404.44C393.701 400.74 390.703 397.741 387.006 397.741C383.309 397.741 380.312 400.74 380.312 404.44C380.312 408.14 383.309 411.139 387.006 411.139Z" stroke="white" stroke-width="0.28" stroke-miterlimit="10" stroke-linecap="round"/>
<path d="M403.054 382.697L402.269 387.405L404.469 390.506" stroke="white" stroke-width="0.28" stroke-miterlimit="10" stroke-linecap="round"/>
<path d="M411.393 393.358C411.221 393.109 410.953 392.764 410.705 392.458C410.59 392.324 410.475 392.19 410.379 392.056C410.437 391.96 410.494 391.865 410.532 391.788C410.628 391.616 410.705 391.463 410.762 391.367C410.819 391.271 410.838 391.214 410.838 391.214C410.838 391.214 410.858 391.156 410.915 391.042C410.953 390.927 411.03 390.793 411.106 390.601C411.144 390.506 411.183 390.41 411.221 390.314C411.393 390.314 411.565 390.314 411.737 390.314C412.139 390.314 412.56 390.314 412.885 390.314C413.191 390.314 413.401 390.276 413.401 390.276C413.401 390.276 413.421 390.199 413.459 390.085C413.459 390.027 413.497 389.97 413.516 389.893C413.516 389.817 413.554 389.74 413.574 389.683C413.574 389.606 413.612 389.529 413.631 389.472C413.631 389.434 413.631 389.396 413.65 389.376C413.65 389.338 413.65 389.319 413.65 389.281C413.669 389.166 413.688 389.089 413.688 389.089C413.688 389.089 413.516 388.974 413.229 388.821C413.153 388.783 413.095 388.745 413.019 388.706C412.942 388.668 412.847 388.63 412.77 388.572C412.598 388.477 412.407 388.4 412.216 388.305C412.063 388.228 411.89 388.151 411.737 388.094C411.737 387.979 411.737 387.883 411.757 387.788C411.757 387.596 411.757 387.424 411.776 387.309C411.776 387.194 411.776 387.137 411.776 387.137C411.776 387.137 411.776 387.08 411.776 386.965C411.776 386.85 411.776 386.678 411.757 386.486C411.757 386.429 411.757 386.391 411.757 386.333C411.757 386.276 411.757 386.218 411.757 386.18C411.91 386.123 412.063 386.046 412.235 385.969C412.617 385.797 412.981 385.606 413.248 385.453C413.516 385.3 413.707 385.204 413.707 385.204C413.707 385.204 413.708 385.127 413.669 385.012C413.65 384.898 413.612 384.744 413.574 384.61C413.574 384.534 413.535 384.457 413.516 384.4C413.516 384.323 413.478 384.266 413.459 384.209C413.421 384.094 413.401 384.017 413.401 384.017C413.401 384.017 413.344 384.017 413.268 384.017C413.172 384.017 413.057 384.017 412.885 383.998C412.579 383.998 412.158 383.979 411.737 383.979C411.565 383.979 411.393 383.979 411.221 383.979C411.183 383.864 411.144 383.768 411.106 383.692C411.03 383.5 410.972 383.366 410.915 383.252C410.896 383.194 410.877 383.156 410.858 383.137C410.858 383.118 410.838 383.098 410.838 383.098C410.838 383.098 410.8 383.041 410.762 382.926C410.724 382.811 410.628 382.677 410.532 382.505C410.475 382.428 410.437 382.333 410.379 382.237C410.494 382.103 410.609 381.969 410.724 381.835C410.858 381.682 410.991 381.51 411.106 381.357C411.221 381.204 411.336 381.05 411.431 380.936C411.623 380.687 411.737 380.514 411.737 380.514C411.737 380.514 411.737 380.514 411.699 380.476C411.68 380.457 411.642 380.419 411.623 380.361C411.546 380.266 411.47 380.151 411.374 380.017C411.278 379.902 411.183 379.787 411.106 379.691C411.068 379.653 411.03 379.615 411.011 379.577C410.991 379.557 410.972 379.538 410.972 379.538C410.972 379.538 410.781 379.615 410.494 379.73C410.341 379.787 410.188 379.864 410.016 379.94C409.844 380.017 409.653 380.113 409.461 380.208C409.308 380.285 409.155 380.361 409.002 380.457C408.926 380.38 408.849 380.304 408.773 380.247C408.696 380.189 408.639 380.113 408.562 380.074C408.524 380.055 408.505 380.017 408.486 379.998C408.467 379.979 408.428 379.959 408.409 379.94C408.314 379.864 408.275 379.825 408.275 379.825C408.275 379.825 408.218 379.787 408.142 379.711C408.046 379.634 407.912 379.538 407.759 379.423C407.682 379.366 407.587 379.309 407.491 379.251C407.529 379.098 407.587 378.926 407.625 378.754C407.721 378.352 407.797 377.95 407.855 377.643C407.912 377.337 407.931 377.127 407.931 377.127C407.931 377.127 407.931 377.127 407.893 377.108C407.855 377.108 407.816 377.069 407.778 377.05C407.682 376.993 407.549 376.935 407.415 376.859C407.281 376.801 407.128 376.725 407.032 376.686C406.975 376.667 406.936 376.648 406.898 376.629C406.86 376.629 406.841 376.61 406.841 376.61C406.841 376.61 406.688 376.763 406.497 376.993C406.286 377.222 406.018 377.548 405.77 377.873C405.655 378.007 405.559 378.16 405.464 378.294C405.349 378.256 405.253 378.218 405.158 378.198C404.966 378.141 404.813 378.103 404.699 378.065C404.584 378.045 404.526 378.026 404.526 378.026C404.526 378.026 404.469 378.026 404.354 377.988C404.335 377.988 404.297 377.988 404.259 377.969C404.22 377.969 404.182 377.969 404.144 377.95C404.067 377.95 403.972 377.911 403.876 377.911C403.781 377.911 403.666 377.873 403.57 377.873C403.532 377.701 403.513 377.529 403.474 377.356C403.436 377.146 403.379 376.954 403.341 376.763C403.302 376.572 403.245 376.399 403.207 376.246C403.13 375.94 403.054 375.749 403.054 375.749C403.054 375.749 403.054 375.749 402.996 375.749C402.958 375.749 402.92 375.749 402.862 375.749C402.748 375.749 402.595 375.749 402.442 375.749C402.289 375.749 402.136 375.749 402.021 375.749C401.963 375.749 401.925 375.749 401.887 375.749C401.849 375.749 401.83 375.749 401.83 375.749C401.83 375.749 401.772 375.94 401.677 376.246C401.638 376.399 401.581 376.572 401.543 376.763C401.504 376.954 401.447 377.146 401.409 377.356C401.371 377.529 401.332 377.701 401.313 377.873C401.198 377.873 401.103 377.892 401.007 377.911C400.816 377.95 400.644 377.969 400.529 377.988C400.414 378.007 400.357 378.026 400.357 378.026C400.357 378.026 400.357 378.026 400.319 378.026C400.28 378.026 400.242 378.026 400.185 378.065C400.07 378.103 399.917 378.141 399.726 378.198C399.63 378.218 399.534 378.256 399.42 378.294C399.324 378.16 399.209 378.007 399.114 377.873C398.865 377.548 398.597 377.222 398.387 376.993C398.291 376.878 398.195 376.782 398.138 376.706C398.081 376.648 398.042 376.61 398.042 376.61C398.042 376.61 397.966 376.648 397.87 376.686C397.813 376.706 397.755 376.744 397.698 376.763C397.641 376.782 397.564 376.82 397.488 376.859C397.354 376.935 397.22 376.993 397.105 377.05C397.01 377.108 396.933 377.146 396.933 377.146C396.933 377.146 396.952 377.356 397.01 377.663C397.067 377.969 397.143 378.371 397.239 378.773C397.277 378.945 397.316 379.117 397.373 379.27C397.335 379.289 397.277 379.328 397.239 379.366C397.201 379.404 397.143 379.423 397.105 379.462C396.933 379.577 396.818 379.672 396.723 379.749C396.627 379.825 396.57 379.864 396.57 379.864C396.57 379.864 396.512 379.902 396.436 379.979C396.34 380.055 396.225 380.151 396.072 380.285C395.996 380.361 395.919 380.419 395.843 380.495C395.69 380.419 395.537 380.342 395.384 380.266C395.192 380.17 395.02 380.074 394.829 379.998C394.733 379.959 394.657 379.921 394.58 379.883C394.504 379.845 394.427 379.806 394.351 379.787C394.064 379.672 393.873 379.596 393.873 379.596C393.873 379.596 393.815 379.653 393.739 379.73C393.739 379.749 393.701 379.768 393.681 379.806C393.662 379.825 393.643 379.864 393.624 379.883C393.586 379.94 393.528 379.998 393.49 380.055C393.433 380.113 393.394 380.17 393.356 380.227C393.318 380.285 393.28 380.342 393.241 380.38C393.165 380.476 393.127 380.534 393.127 380.534C393.127 380.534 393.241 380.706 393.414 380.955C393.586 381.204 393.854 381.548 394.102 381.854C394.217 381.988 394.332 382.122 394.427 382.256C394.37 382.352 394.313 382.448 394.274 382.524C394.179 382.696 394.102 382.85 394.045 382.945C393.987 383.041 393.968 383.098 393.968 383.098C393.968 383.098 393.949 383.156 393.892 383.271C393.854 383.386 393.777 383.519 393.701 383.711C393.662 383.807 393.624 383.902 393.586 383.998C393.414 383.998 393.241 383.998 393.069 383.998C392.668 383.998 392.247 383.998 391.922 383.998C391.616 383.998 391.405 384.036 391.405 384.036C391.405 384.036 391.386 384.113 391.348 384.228C391.348 384.285 391.31 384.342 391.291 384.419C391.291 384.496 391.252 384.572 391.233 384.63C391.233 384.706 391.195 384.783 391.176 384.84C391.176 384.878 391.176 384.917 391.157 384.936C391.157 384.974 391.157 384.993 391.157 385.032C391.137 385.146 391.118 385.223 391.118 385.223C391.118 385.223 391.291 385.338 391.577 385.491C391.654 385.529 391.711 385.567 391.788 385.606C391.864 385.644 391.96 385.682 392.036 385.74C392.209 385.835 392.4 385.912 392.591 386.008C392.744 386.084 392.916 386.161 393.069 386.218C393.069 386.333 393.069 386.429 393.05 386.524C393.05 386.716 393.05 386.888 393.031 387.003C393.031 387.118 393.031 387.175 393.031 387.175C393.031 387.175 393.031 387.233 393.031 387.348C393.031 387.462 393.031 387.635 393.05 387.826C393.05 387.883 393.05 387.922 393.05 387.979C393.05 388.037 393.05 388.094 393.05 388.132C392.897 388.19 392.744 388.266 392.572 388.343C392.189 388.515 391.826 388.706 391.558 388.86C391.291 389.013 391.099 389.108 391.099 389.108C391.099 389.108 391.099 389.185 391.138 389.3C391.157 389.415 391.195 389.568 391.233 389.702C391.233 389.778 391.271 389.855 391.291 389.912C391.291 389.989 391.329 390.046 391.348 390.104C391.386 390.219 391.405 390.295 391.405 390.295C391.405 390.295 391.463 390.295 391.539 390.295C391.635 390.295 391.75 390.295 391.922 390.314C392.228 390.314 392.649 390.333 393.069 390.333C393.241 390.333 393.414 390.333 393.586 390.333C393.624 390.448 393.662 390.544 393.701 390.621C393.777 390.812 393.834 390.946 393.892 391.061C393.911 391.118 393.93 391.156 393.949 391.176C393.949 391.195 393.968 391.214 393.968 391.214C393.968 391.214 394.007 391.271 394.045 391.386C394.083 391.501 394.179 391.635 394.274 391.807C394.332 391.884 394.37 391.979 394.427 392.075C394.313 392.209 394.198 392.343 394.083 392.477C393.949 392.63 393.815 392.802 393.701 392.956C393.586 393.109 393.471 393.262 393.375 393.377C393.184 393.626 393.069 393.798 393.069 393.798C393.069 393.798 393.069 393.798 393.108 393.836C393.127 393.855 393.165 393.893 393.184 393.951C393.261 394.047 393.337 394.161 393.433 394.295C393.528 394.41 393.624 394.525 393.701 394.621C393.739 394.659 393.777 394.697 393.796 394.736C393.815 394.755 393.834 394.774 393.834 394.774C393.834 394.774 394.026 394.697 394.313 394.583C394.466 394.525 394.619 394.449 394.791 394.372C394.963 394.295 395.154 394.2 395.345 394.104C395.498 394.027 395.651 393.951 395.804 393.855C395.881 393.932 395.958 394.008 396.034 394.066C396.111 394.123 396.168 394.2 396.244 394.238C396.283 394.257 396.302 394.295 396.321 394.315C396.34 394.334 396.378 394.353 396.397 394.372C396.493 394.449 396.531 394.487 396.531 394.487C396.531 394.487 396.589 394.525 396.665 394.602C396.761 394.678 396.895 394.774 397.048 394.889C397.124 394.946 397.22 395.004 397.316 395.061C397.277 395.214 397.22 395.386 397.182 395.559C397.086 395.961 397.01 396.363 396.952 396.669C396.895 396.975 396.876 397.186 396.876 397.186C396.876 397.186 396.876 397.186 396.914 397.205C396.952 397.205 396.99 397.243 397.029 397.262C397.124 397.32 397.258 397.377 397.392 397.454C397.526 397.511 397.679 397.588 397.775 397.626C397.832 397.645 397.87 397.664 397.908 397.683C397.947 397.683 397.966 397.702 397.966 397.702C397.966 397.702 398.119 397.549 398.31 397.32C398.521 397.09 398.788 396.765 399.037 396.439C399.152 396.305 399.247 396.152 399.343 396.018C399.458 396.056 399.553 396.095 399.649 396.114C399.84 396.171 399.993 396.209 400.108 396.248C400.223 396.267 400.28 396.286 400.28 396.286C400.28 396.286 400.338 396.286 400.452 396.324C400.472 396.324 400.51 396.324 400.548 396.343C400.586 396.343 400.625 396.343 400.663 396.363C400.739 396.363 400.835 396.401 400.931 396.401C401.026 396.401 401.141 396.439 401.237 396.439C401.275 396.611 401.294 396.784 401.332 396.956C401.371 397.166 401.428 397.358 401.466 397.549C401.504 397.741 401.562 397.913 401.6 398.066C401.677 398.372 401.753 398.564 401.753 398.564C401.753 398.564 401.753 398.564 401.81 398.564C401.849 398.564 401.887 398.564 401.944 398.564C402.059 398.564 402.212 398.564 402.365 398.564C402.518 398.564 402.671 398.564 402.786 398.564C402.843 398.564 402.882 398.564 402.92 398.564C402.958 398.564 402.977 398.564 402.977 398.564C402.977 398.564 403.035 398.372 403.13 398.066C403.168 397.913 403.226 397.741 403.264 397.549C403.302 397.358 403.36 397.166 403.398 396.956C403.436 396.784 403.474 396.611 403.494 396.439C403.608 396.439 403.704 396.42 403.8 396.401C403.991 396.363 404.163 396.343 404.278 396.324C404.393 396.305 404.45 396.286 404.45 396.286C404.45 396.286 404.45 396.286 404.488 396.286C404.526 396.286 404.565 396.286 404.622 396.248C404.737 396.209 404.89 396.171 405.081 396.114C405.177 396.095 405.272 396.056 405.387 396.018C405.483 396.152 405.598 396.305 405.693 396.439C405.942 396.765 406.21 397.09 406.42 397.32C406.516 397.434 406.611 397.53 406.669 397.607C406.726 397.664 406.764 397.702 406.764 397.702C406.764 397.702 406.841 397.664 406.936 397.626C406.994 397.607 407.051 397.568 407.109 397.549C407.166 397.53 407.243 397.492 407.319 397.454C407.453 397.377 407.587 397.32 407.702 397.262C407.797 397.205 407.874 397.166 407.874 397.166C407.874 397.166 407.855 396.956 407.797 396.65C407.74 396.343 407.663 395.941 407.568 395.54C407.529 395.367 407.491 395.195 407.434 395.042C407.472 395.023 407.529 394.984 407.568 394.946C407.606 394.908 407.663 394.889 407.702 394.85C407.874 394.736 407.989 394.64 408.084 394.563C408.18 394.487 408.237 394.449 408.237 394.449C408.237 394.449 408.295 394.41 408.371 394.334C408.467 394.257 408.581 394.161 408.734 394.027C408.811 393.951 408.887 393.893 408.964 393.817C409.117 393.893 409.27 393.97 409.423 394.047C409.614 394.142 409.786 394.238 409.978 394.315C410.073 394.353 410.15 394.391 410.226 394.429C410.303 394.468 410.379 394.506 410.456 394.525C410.743 394.64 410.934 394.717 410.934 394.717C410.934 394.717 410.991 394.659 411.068 394.583C411.068 394.563 411.106 394.544 411.125 394.506C411.144 394.487 411.164 394.449 411.183 394.429C411.221 394.372 411.278 394.315 411.317 394.257C411.374 394.2 411.412 394.142 411.451 394.085C411.489 394.027 411.527 393.97 411.565 393.932C411.642 393.836 411.68 393.779 411.68 393.779C411.68 393.779 411.565 393.606 411.393 393.358ZM398.96 392.554C395.958 390.678 395.039 386.697 396.914 383.692C398.788 380.687 402.767 379.768 405.77 381.644C408.773 383.519 409.691 387.501 407.816 390.506C405.942 393.511 401.963 394.429 398.96 392.554Z" fill="white"/>
<path d="M402.289 388.132C402.69 388.132 403.015 387.807 403.015 387.405C403.015 387.003 402.69 386.678 402.289 386.678C401.887 386.678 401.562 387.003 401.562 387.405C401.562 387.807 401.887 388.132 402.289 388.132Z" fill="white"/>
<path d="M402.422 392.688C405.518 392.688 408.027 390.177 408.027 387.08C408.027 383.982 405.518 381.472 402.422 381.472C399.327 381.472 396.818 383.982 396.818 387.08C396.818 390.177 399.327 392.688 402.422 392.688Z" stroke="white" stroke-width="0.19" stroke-miterlimit="10" stroke-linecap="round"/>
<path d="M389.646 386.104C389.473 385.95 389.32 385.816 389.148 385.682C389.206 385.548 389.244 385.434 389.301 385.319C389.397 385.089 389.454 384.879 389.512 384.745C389.55 384.611 389.588 384.534 389.588 384.534C389.588 384.534 389.607 384.457 389.646 384.304C389.684 384.17 389.741 383.96 389.799 383.711C389.818 383.596 389.856 383.462 389.894 383.328C390.105 383.309 390.315 383.29 390.545 383.252C391.061 383.175 391.577 383.098 391.96 383.022C392.342 382.945 392.61 382.888 392.61 382.888C392.61 382.888 392.61 382.792 392.649 382.639C392.649 382.563 392.668 382.486 392.668 382.39C392.668 382.295 392.668 382.199 392.687 382.103C392.687 382.008 392.687 381.912 392.706 381.816C392.706 381.778 392.706 381.72 392.706 381.682C392.706 381.644 392.706 381.606 392.706 381.567C392.706 381.414 392.706 381.318 392.706 381.318C392.706 381.318 392.457 381.223 392.094 381.089C391.998 381.05 391.903 381.012 391.788 380.974C391.673 380.936 391.558 380.897 391.444 380.859C391.214 380.783 390.965 380.706 390.717 380.629C390.506 380.572 390.296 380.515 390.086 380.457C390.086 380.323 390.085 380.189 390.066 380.055C390.066 379.806 390.028 379.596 390.009 379.462C390.009 379.309 389.971 379.232 389.971 379.232C389.971 379.232 389.971 379.156 389.932 379.002C389.913 378.849 389.875 378.658 389.818 378.409C389.818 378.352 389.799 378.275 389.779 378.218C389.779 378.16 389.741 378.084 389.722 378.026C389.894 377.911 390.085 377.797 390.277 377.682C390.717 377.395 391.137 377.088 391.444 376.84C391.75 376.61 391.96 376.438 391.96 376.438C391.96 376.438 391.922 376.342 391.883 376.208C391.845 376.074 391.769 375.883 391.692 375.71C391.654 375.615 391.616 375.538 391.597 375.442C391.558 375.366 391.52 375.289 391.501 375.213C391.444 375.079 391.405 374.983 391.405 374.983C391.405 374.983 391.348 374.983 391.233 374.983C391.118 374.983 390.946 375.002 390.755 375.021C390.353 375.06 389.837 375.117 389.32 375.213C389.11 375.251 388.88 375.289 388.67 375.328C388.613 375.194 388.536 375.079 388.479 374.983C388.345 374.772 388.23 374.6 388.154 374.466C388.115 374.409 388.077 374.351 388.058 374.332C388.039 374.294 388.02 374.275 388.02 374.275C388.02 374.275 387.982 374.198 387.886 374.083C387.809 373.969 387.675 373.796 387.522 373.605C387.446 373.509 387.369 373.414 387.274 373.299C387.389 373.126 387.503 372.935 387.618 372.744C387.752 372.514 387.886 372.284 388.001 372.074C388.115 371.863 388.23 371.653 388.307 371.48C388.479 371.136 388.594 370.887 388.594 370.887C388.594 370.887 388.594 370.887 388.555 370.83C388.517 370.791 388.479 370.753 388.421 370.715C388.326 370.619 388.173 370.485 388.039 370.351C387.886 370.217 387.752 370.102 387.637 370.007C387.58 369.949 387.542 369.911 387.503 369.892C387.465 369.873 387.446 369.853 387.446 369.853C387.446 369.853 387.216 369.987 386.872 370.198C386.7 370.294 386.509 370.428 386.298 370.562C386.088 370.696 385.878 370.83 385.667 370.983C385.476 371.117 385.304 371.251 385.132 371.366C385.017 371.289 384.902 371.212 384.806 371.136C384.711 371.059 384.596 371.002 384.52 370.944C384.481 370.925 384.443 370.887 384.405 370.868C384.366 370.849 384.328 370.83 384.309 370.81C384.175 370.734 384.118 370.696 384.118 370.696C384.118 370.696 384.041 370.657 383.927 370.581C383.793 370.504 383.621 370.409 383.391 370.294C383.276 370.236 383.161 370.179 383.028 370.121C383.047 369.911 383.085 369.681 383.104 369.471C383.142 368.954 383.181 368.437 383.181 368.035C383.181 367.633 383.181 367.365 383.181 367.365C383.181 367.365 383.161 367.365 383.123 367.346C383.085 367.346 383.028 367.308 382.951 367.289C382.817 367.25 382.626 367.174 382.454 367.116C382.263 367.059 382.09 367.021 381.937 366.963C381.861 366.944 381.803 366.925 381.765 366.925C381.727 366.925 381.708 366.925 381.708 366.925C381.708 366.925 381.555 367.136 381.344 367.48C381.134 367.805 380.847 368.265 380.598 368.705C380.484 368.896 380.388 369.088 380.292 369.279C380.159 369.26 380.025 369.222 379.891 369.203C379.642 369.164 379.432 369.145 379.298 369.126C379.145 369.126 379.068 369.126 379.068 369.126C379.068 369.126 378.992 369.126 378.839 369.126C378.8 369.126 378.762 369.126 378.724 369.126C378.686 369.126 378.628 369.126 378.59 369.126C378.494 369.126 378.38 369.126 378.246 369.126C378.131 369.126 377.997 369.126 377.844 369.126C377.768 368.935 377.71 368.724 377.615 368.514C377.519 368.265 377.423 368.035 377.328 367.805C377.232 367.576 377.136 367.365 377.06 367.193C376.888 366.829 376.773 366.6 376.773 366.6C376.773 366.6 376.754 366.6 376.716 366.6C376.677 366.6 376.62 366.6 376.543 366.619C376.39 366.619 376.199 366.657 376.008 366.695C375.817 366.734 375.625 366.753 375.492 366.791C375.415 366.791 375.358 366.81 375.319 366.829C375.281 366.829 375.262 366.829 375.262 366.829C375.262 366.829 375.224 367.097 375.166 367.48C375.147 367.671 375.109 367.901 375.09 368.15C375.071 368.399 375.052 368.648 375.032 368.916C375.032 369.145 375.013 369.356 375.013 369.566C374.879 369.605 374.746 369.643 374.631 369.681C374.401 369.758 374.191 369.815 374.057 369.873C373.923 369.93 373.847 369.949 373.847 369.949C373.847 369.949 373.827 369.949 373.789 369.968C373.751 369.968 373.694 370.007 373.636 370.026C373.502 370.083 373.311 370.16 373.081 370.275C372.967 370.332 372.852 370.389 372.718 370.447C372.565 370.294 372.412 370.141 372.259 369.987C371.876 369.624 371.494 369.279 371.188 369.03C371.035 368.896 370.901 368.801 370.824 368.724C370.729 368.648 370.691 368.609 370.691 368.609L370.48 368.743C370.48 368.743 370.346 368.82 370.27 368.877C370.193 368.935 370.117 368.973 370.04 369.03C369.887 369.145 369.715 369.241 369.6 369.337C369.486 369.432 369.409 369.49 369.409 369.49C369.409 369.49 369.486 369.739 369.6 370.121C369.715 370.485 369.906 370.983 370.098 371.48C370.174 371.691 370.27 371.882 370.346 372.074C370.289 372.112 370.251 372.169 370.193 372.208C370.136 372.246 370.098 372.303 370.059 372.342C369.868 372.514 369.734 372.667 369.619 372.763C369.524 372.858 369.466 372.935 369.466 372.935C369.466 372.935 369.409 372.992 369.313 373.107C369.218 373.222 369.084 373.375 368.931 373.567C368.854 373.662 368.759 373.758 368.682 373.873C368.491 373.796 368.281 373.739 368.07 373.662C367.822 373.586 367.573 373.509 367.343 373.433C367.229 373.394 367.114 373.375 366.999 373.337C366.884 373.318 366.789 373.28 366.693 373.26C366.31 373.165 366.043 373.107 366.043 373.107C366.043 373.107 365.985 373.184 365.909 373.318C365.89 373.356 365.871 373.375 365.851 373.414C365.832 373.452 365.813 373.49 365.794 373.528C365.756 373.605 365.698 373.681 365.66 373.777C365.603 373.854 365.565 373.949 365.526 374.026C365.488 374.103 365.45 374.179 365.411 374.237C365.354 374.371 365.297 374.447 365.297 374.447C365.297 374.447 365.469 374.639 365.756 374.926C366.024 375.213 366.406 375.576 366.789 375.921C366.961 376.074 367.114 376.208 367.286 376.342C367.229 376.476 367.19 376.591 367.133 376.706C367.037 376.935 366.98 377.146 366.923 377.28C366.884 377.414 366.846 377.49 366.846 377.49C366.846 377.49 366.827 377.567 366.789 377.72C366.75 377.854 366.693 378.065 366.636 378.313C366.617 378.428 366.578 378.562 366.54 378.696C366.33 378.715 366.119 378.735 365.89 378.773C365.373 378.849 364.857 378.926 364.474 379.002C364.092 379.079 363.824 379.136 363.824 379.136C363.824 379.136 363.824 379.232 363.786 379.385C363.786 379.462 363.767 379.538 363.767 379.634C363.767 379.73 363.767 379.826 363.747 379.921C363.747 380.017 363.747 380.113 363.728 380.208C363.728 380.247 363.728 380.304 363.728 380.342C363.728 380.381 363.728 380.419 363.728 380.457C363.728 380.61 363.728 380.706 363.728 380.706C363.728 380.706 363.977 380.802 364.34 380.936C364.436 380.974 364.532 381.012 364.646 381.05C364.761 381.089 364.876 381.127 364.991 381.165C365.22 381.242 365.469 381.318 365.718 381.395C365.928 381.452 366.138 381.51 366.349 381.567C366.349 381.701 366.349 381.835 366.368 381.969C366.368 382.218 366.406 382.429 366.425 382.563C366.425 382.716 366.463 382.792 366.463 382.792C366.463 382.792 366.464 382.869 366.502 383.022C366.521 383.175 366.559 383.366 366.617 383.615C366.617 383.673 366.636 383.749 366.655 383.807C366.655 383.864 366.693 383.941 366.712 383.998C366.54 384.113 366.349 384.228 366.157 384.343C365.718 384.63 365.297 384.936 364.991 385.185C364.685 385.414 364.474 385.587 364.474 385.587C364.474 385.587 364.513 385.682 364.551 385.816C364.589 385.95 364.666 386.142 364.742 386.314C364.78 386.41 364.819 386.486 364.838 386.582C364.876 386.659 364.914 386.735 364.933 386.812C364.991 386.946 365.029 387.041 365.029 387.041C365.029 387.041 365.086 387.041 365.201 387.041C365.316 387.041 365.488 387.022 365.679 387.003C366.081 386.965 366.597 386.907 367.114 386.812C367.324 386.773 367.554 386.735 367.764 386.697C367.822 386.831 367.898 386.946 367.955 387.041C368.089 387.252 368.204 387.424 368.281 387.558C368.319 387.616 368.357 387.673 368.376 387.692C368.395 387.73 368.414 387.75 368.414 387.75C368.414 387.75 368.453 387.826 368.548 387.941C368.625 388.056 368.759 388.228 368.912 388.419C368.988 388.515 369.065 388.611 369.16 388.726C369.046 388.898 368.931 389.089 368.816 389.281C368.682 389.51 368.548 389.74 368.434 389.951C368.319 390.161 368.204 390.372 368.128 390.544C367.955 390.889 367.841 391.137 367.841 391.137C367.841 391.137 367.841 391.137 367.879 391.195C367.917 391.233 367.955 391.271 368.013 391.31C368.108 391.405 368.261 391.539 368.395 391.673C368.548 391.807 368.682 391.922 368.797 392.018C368.854 392.075 368.893 392.114 368.931 392.133C368.969 392.152 368.988 392.171 368.988 392.171C368.988 392.171 369.218 392.037 369.562 391.826C369.734 391.731 369.926 391.597 370.136 391.463C370.346 391.329 370.557 391.195 370.767 391.042C370.958 390.908 371.131 390.774 371.303 390.659C371.417 390.735 371.532 390.812 371.628 390.889C371.723 390.965 371.838 391.023 371.915 391.08C371.953 391.099 371.991 391.137 372.029 391.157C372.068 391.176 372.106 391.195 372.125 391.214C372.259 391.291 372.316 391.329 372.316 391.329C372.316 391.329 372.393 391.367 372.508 391.444C372.642 391.52 372.814 391.616 373.043 391.731C373.158 391.788 373.273 391.846 373.407 391.903C373.388 392.114 373.349 392.343 373.33 392.554C373.292 393.071 373.254 393.587 373.254 393.989C373.254 394.391 373.254 394.659 373.254 394.659C373.254 394.659 373.273 394.659 373.311 394.678C373.349 394.678 373.407 394.717 373.483 394.736C373.617 394.774 373.808 394.851 373.98 394.908C374.172 394.965 374.344 395.004 374.497 395.061C374.573 395.08 374.631 395.099 374.669 395.099C374.707 395.099 374.726 395.099 374.726 395.099C374.726 395.099 374.879 394.889 375.09 394.544C375.3 394.219 375.587 393.76 375.836 393.319C375.951 393.128 376.046 392.937 376.142 392.745C376.276 392.764 376.41 392.803 376.543 392.822C376.792 392.86 377.003 392.879 377.136 392.898C377.289 392.898 377.366 392.898 377.366 392.898C377.366 392.898 377.442 392.898 377.595 392.898C377.634 392.898 377.672 392.898 377.71 392.898C377.749 392.898 377.806 392.898 377.844 392.898C377.94 392.898 378.055 392.898 378.188 392.898C378.303 392.898 378.437 392.898 378.59 392.898C378.667 393.09 378.724 393.3 378.82 393.511C378.915 393.76 379.011 393.989 379.107 394.219C379.202 394.449 379.298 394.659 379.374 394.831C379.546 395.195 379.661 395.425 379.661 395.425C379.661 395.425 379.68 395.425 379.719 395.425C379.757 395.425 379.814 395.425 379.891 395.406C380.044 395.406 380.235 395.367 380.426 395.329C380.618 395.291 380.809 395.272 380.943 395.233C381.019 395.233 381.077 395.214 381.115 395.195C381.153 395.195 381.172 395.195 381.172 395.195C381.172 395.195 381.211 394.927 381.268 394.544C381.287 394.353 381.325 394.123 381.344 393.874C381.364 393.626 381.383 393.377 381.402 393.109C381.402 392.879 381.421 392.669 381.421 392.458C381.555 392.42 381.689 392.381 381.803 392.343C382.033 392.267 382.243 392.209 382.377 392.152C382.511 392.094 382.588 392.075 382.588 392.075C382.588 392.075 382.607 392.075 382.645 392.056C382.683 392.056 382.741 392.018 382.798 391.999C382.932 391.941 383.123 391.865 383.353 391.75C383.468 391.692 383.582 391.635 383.716 391.578C383.869 391.731 384.022 391.884 384.175 392.037C384.558 392.401 384.94 392.745 385.246 392.994C385.399 393.128 385.533 393.224 385.61 393.3C385.705 393.377 385.744 393.415 385.744 393.415L385.954 393.281C385.954 393.281 386.088 393.205 386.164 393.147C386.241 393.09 386.317 393.051 386.394 392.994C386.547 392.879 386.719 392.783 386.834 392.688C386.949 392.592 387.025 392.535 387.025 392.535C387.025 392.535 386.949 392.286 386.834 391.903C386.719 391.539 386.528 391.042 386.337 390.544C386.26 390.333 386.164 390.142 386.088 389.951C386.145 389.912 386.184 389.855 386.241 389.817C386.298 389.778 386.337 389.721 386.375 389.683C386.566 389.51 386.7 389.357 386.815 389.262C386.91 389.166 386.968 389.089 386.968 389.089C386.968 389.089 387.025 389.032 387.121 388.917C387.216 388.802 387.35 388.649 387.503 388.458C387.58 388.362 387.675 388.266 387.752 388.151C387.943 388.228 388.154 388.285 388.364 388.362C388.613 388.439 388.861 388.515 389.091 388.592C389.206 388.63 389.32 388.649 389.435 388.687C389.55 388.707 389.646 388.745 389.741 388.764C390.124 388.86 390.392 388.917 390.392 388.917L390.525 388.707C390.525 388.707 390.564 388.649 390.583 388.611C390.602 388.573 390.621 388.534 390.64 388.496C390.678 388.419 390.736 388.343 390.774 388.247C390.831 388.171 390.87 388.075 390.908 387.998C390.946 387.922 390.984 387.845 391.023 387.788C391.08 387.654 391.138 387.577 391.138 387.577C391.138 387.577 390.965 387.386 390.678 387.099C390.411 386.812 390.028 386.448 389.646 386.104ZM385.151 387.73C385.151 387.73 384.959 387.941 384.806 388.075C384.768 388.113 384.73 388.152 384.692 388.19C384.653 388.228 384.615 388.266 384.558 388.305C384.462 388.381 384.366 388.458 384.271 388.534C384.175 388.611 384.06 388.687 383.965 388.783L383.888 388.841L383.812 388.898C383.812 388.898 383.697 388.975 383.64 389.013C383.181 389.319 382.722 389.587 382.339 389.759C382.148 389.855 381.995 389.912 381.88 389.97C381.823 389.989 381.784 390.008 381.746 390.027C381.708 390.027 381.708 390.027 381.708 390.027C381.708 390.027 381.65 390.046 381.536 390.104C381.421 390.142 381.268 390.2 381.077 390.257C380.694 390.372 380.159 390.506 379.623 390.601C379.087 390.678 378.552 390.697 378.131 390.716C378.035 390.716 377.94 390.716 377.844 390.716C377.806 390.716 377.768 390.716 377.729 390.716C377.691 390.716 377.653 390.716 377.634 390.716C377.519 390.716 377.442 390.716 377.442 390.716C377.442 390.716 377.366 390.716 377.251 390.716C377.136 390.716 376.964 390.678 376.754 390.659C376.352 390.601 375.817 390.487 375.3 390.333C374.784 390.161 374.286 389.951 373.904 389.778C373.732 389.683 373.579 389.606 373.464 389.549C373.368 389.491 373.311 389.453 373.311 389.453C373.311 389.453 373.254 389.415 373.158 389.357C373.139 389.357 373.101 389.319 373.081 389.3C373.043 389.281 373.024 389.262 372.986 389.243C372.909 389.204 372.833 389.147 372.756 389.089C372.412 388.86 371.991 388.534 371.59 388.171C371.188 387.807 370.824 387.386 370.576 387.061C370.461 386.888 370.346 386.773 370.289 386.659C370.212 386.563 370.174 386.505 370.174 386.505C370.174 386.505 370.174 386.505 370.155 386.467C370.155 386.448 370.117 386.41 370.079 386.352C370.021 386.257 369.926 386.104 369.811 385.931C369.6 385.587 369.352 385.089 369.16 384.591C369.141 384.534 369.103 384.457 369.084 384.4L369.046 384.304L369.007 384.209C368.969 384.075 368.931 383.96 368.893 383.826C368.854 383.711 368.835 383.577 368.797 383.462C368.797 383.405 368.759 383.347 368.759 383.29C368.759 383.232 368.74 383.175 368.721 383.137C368.663 382.945 368.644 382.773 368.625 382.658C368.606 382.543 368.587 382.467 368.587 382.467C368.587 382.467 368.587 382.39 368.567 382.275C368.567 382.161 368.529 381.988 368.51 381.778C368.51 381.682 368.491 381.567 368.491 381.452C368.491 381.338 368.491 381.204 368.491 381.089C368.491 380.84 368.491 380.572 368.529 380.285C368.529 380.208 368.529 380.151 368.529 380.074C368.529 379.998 368.529 379.94 368.548 379.883C368.548 379.826 368.548 379.749 368.567 379.692C368.567 379.653 368.567 379.634 368.567 379.596C368.567 379.558 368.567 379.538 368.567 379.5C368.587 379.366 368.606 379.251 368.625 379.136C368.644 379.022 368.682 378.907 368.701 378.811C368.74 378.62 368.797 378.447 368.835 378.333C368.874 378.218 368.893 378.16 368.893 378.16C368.893 378.16 368.912 378.103 368.95 377.988C368.988 377.873 369.046 377.72 369.122 377.529C369.16 377.433 369.199 377.337 369.237 377.222C369.294 377.108 369.333 377.012 369.39 376.897C369.39 376.859 369.409 376.84 369.428 376.801C369.428 376.763 369.466 376.744 369.466 376.706C369.505 376.648 369.524 376.591 369.562 376.533C369.6 376.476 369.619 376.419 369.658 376.361C369.696 376.304 369.734 376.246 369.753 376.189C369.887 375.959 370.04 375.73 370.174 375.519C370.251 375.423 370.327 375.308 370.385 375.213C370.461 375.117 370.518 375.04 370.595 374.964C370.71 374.811 370.844 374.677 370.92 374.581C370.997 374.485 371.035 374.447 371.035 374.447C371.035 374.447 371.073 374.39 371.169 374.313C371.245 374.237 371.36 374.103 371.513 373.969C371.551 373.93 371.59 373.892 371.628 373.854C371.666 373.815 371.704 373.777 371.762 373.739C371.857 373.662 371.953 373.586 372.049 373.509C372.144 373.433 372.259 373.356 372.355 373.26L372.431 373.203L372.508 373.146C372.508 373.146 372.622 373.069 372.68 373.031C373.139 372.724 373.598 372.457 373.98 372.284C374.172 372.189 374.325 372.131 374.44 372.074C374.497 372.055 374.535 372.035 374.573 372.016C374.612 372.016 374.612 372.016 374.612 372.016C374.612 372.016 374.669 371.997 374.784 371.94C374.899 371.901 375.052 371.844 375.243 371.787C375.625 371.672 376.161 371.538 376.697 371.442C377.232 371.366 377.768 371.346 378.188 371.327C378.284 371.327 378.38 371.327 378.475 371.327C378.514 371.327 378.552 371.327 378.59 371.327C378.628 371.327 378.667 371.327 378.686 371.327C378.8 371.327 378.877 371.327 378.877 371.327C378.877 371.327 378.954 371.327 379.068 371.327C379.183 371.327 379.355 371.366 379.566 371.385C379.967 371.442 380.503 371.557 381.019 371.71C381.536 371.882 382.033 372.093 382.416 372.265C382.588 372.361 382.741 372.437 382.855 372.495C382.951 372.552 383.008 372.591 383.008 372.591C383.008 372.591 383.066 372.629 383.161 372.686C383.181 372.686 383.219 372.724 383.238 372.744C383.276 372.763 383.295 372.782 383.334 372.801C383.41 372.839 383.487 372.897 383.563 372.954C383.907 373.184 384.328 373.509 384.73 373.873C385.132 374.237 385.495 374.658 385.744 374.983C385.858 375.155 385.973 375.27 386.031 375.385C386.107 375.481 386.145 375.538 386.145 375.538C386.145 375.538 386.145 375.538 386.164 375.576C386.164 375.596 386.203 375.634 386.241 375.691C386.298 375.787 386.394 375.94 386.509 376.112C386.719 376.457 386.968 376.954 387.159 377.452C387.178 377.51 387.216 377.586 387.236 377.644L387.274 377.739L387.312 377.835C387.35 377.969 387.389 378.084 387.427 378.218C387.465 378.333 387.484 378.467 387.522 378.581C387.522 378.639 387.561 378.696 387.561 378.754C387.561 378.811 387.58 378.869 387.599 378.907C387.656 379.098 387.675 379.27 387.695 379.385C387.714 379.5 387.733 379.577 387.733 379.577C387.733 379.577 387.733 379.653 387.752 379.768C387.752 379.883 387.79 380.055 387.809 380.266C387.809 380.361 387.828 380.476 387.828 380.591C387.828 380.706 387.828 380.84 387.828 380.955C387.828 381.204 387.829 381.472 387.79 381.759C387.79 381.835 387.79 381.893 387.79 381.969C387.79 382.046 387.79 382.103 387.771 382.161C387.771 382.218 387.771 382.295 387.752 382.352C387.752 382.39 387.752 382.409 387.752 382.448C387.752 382.486 387.752 382.505 387.752 382.543C387.733 382.677 387.714 382.792 387.695 382.907C387.675 383.022 387.637 383.137 387.618 383.232C387.58 383.424 387.522 383.596 387.484 383.711C387.446 383.826 387.427 383.883 387.427 383.883C387.427 383.883 387.408 383.941 387.369 384.055C387.331 384.17 387.274 384.323 387.197 384.515C387.159 384.611 387.121 384.706 387.083 384.821C387.025 384.936 386.987 385.032 386.93 385.146C386.93 385.185 386.91 385.204 386.891 385.242C386.891 385.28 386.853 385.3 386.853 385.338C386.815 385.395 386.796 385.453 386.757 385.51C386.719 385.568 386.7 385.625 386.662 385.682C386.623 385.74 386.585 385.797 386.566 385.855C386.432 386.084 386.279 386.314 386.145 386.525C386.069 386.62 385.992 386.735 385.935 386.831C385.858 386.927 385.801 387.003 385.725 387.08C385.61 387.233 385.476 387.367 385.399 387.462C385.323 387.558 385.285 387.596 385.285 387.596C385.285 387.596 385.246 387.654 385.151 387.73Z" fill="white"/>
<path d="M371.398 381.548L378.437 381.357L379.336 376.055" stroke="white" stroke-width="0.47" stroke-miterlimit="10" stroke-linecap="round"/>
<path d="M379.432 381.414C379.336 381.969 378.82 382.333 378.265 382.237C377.71 382.142 377.347 381.625 377.442 381.07C377.538 380.515 378.055 380.151 378.609 380.247C379.164 380.342 379.527 380.859 379.432 381.414Z" fill="white"/>
<path d="M378.15 389.51C382.872 389.51 386.7 385.68 386.7 380.955C386.7 376.229 382.872 372.399 378.15 372.399C373.428 372.399 369.6 376.229 369.6 380.955C369.6 385.68 373.428 389.51 378.15 389.51Z" stroke="white" stroke-width="0.36" stroke-miterlimit="10" stroke-linecap="round"/>
<path d="M367.879 403.942H365.66V406.163H367.879V403.942Z" stroke="white" stroke-width="0.17" stroke-miterlimit="10"/>
<path d="M367.879 408.402H365.66V410.622H367.879V408.402Z" stroke="white" stroke-width="0.17" stroke-miterlimit="10"/>
<path d="M367.879 412.861H365.66V415.082H367.879V412.861Z" stroke="white" stroke-width="0.17" stroke-miterlimit="10"/>
<path d="M366.77 405.052L368.281 406.564L371.226 403.617" stroke="white" stroke-width="0.29" stroke-miterlimit="10" stroke-linecap="round"/>
<path d="M366.77 409.455L368.281 410.967L371.226 408.019" stroke="white" stroke-width="0.29" stroke-miterlimit="10" stroke-linecap="round"/>
<path d="M366.77 413.857L368.281 415.369L371.226 412.421" stroke="white" stroke-width="0.29" stroke-miterlimit="10" stroke-linecap="round"/>
<path d="M421.167 381.931C425.643 400.363 414.339 418.929 395.938 423.389C391.271 424.518 386.585 424.652 382.129 423.887" stroke="white" stroke-width="0.76" stroke-miterlimit="10" stroke-linecap="round"/>
<path d="M357.168 405.454C356.02 403.177 355.121 400.746 354.509 398.162C350.033 379.73 361.337 361.164 379.738 356.704C385.017 355.422 390.296 355.441 395.269 356.532" stroke="white" stroke-width="0.76" stroke-miterlimit="10" stroke-linecap="round"/>
<path d="M353.61 404.861L359.023 402.181L359.1 408.861L353.61 404.861Z" fill="white"/>
<path d="M424.113 381.319L418.394 383.194L419.254 376.572L424.113 381.319Z" fill="white"/>
<path d="M405.674 359.919V369.011" stroke="white" stroke-width="0.44" stroke-miterlimit="10" stroke-linecap="round"/>
<path d="M403.513 363.154V369.011" stroke="white" stroke-width="0.44" stroke-miterlimit="10" stroke-linecap="round"/>
<path d="M401.351 365.394V369.011" stroke="white" stroke-width="0.44" stroke-miterlimit="10" stroke-linecap="round"/>
<path d="M398.788 364.169L401.179 361.623L401.887 362.332L404.431 359.652" stroke="white" stroke-width="0.2" stroke-miterlimit="10" stroke-linecap="round"/>
<path d="M399.075 370.389H406.688" stroke="white" stroke-width="0.2" stroke-miterlimit="10" stroke-linecap="round"/>
<path d="M256.33 544.221C256.33 544.221 256.33 544.278 256.31 544.297C253.403 556.03 247.684 569.295 236.456 577.678C234.62 579.037 232.65 580.281 230.527 581.353C230.278 581.219 230.011 581.085 229.762 580.951C200.555 565.428 201.836 519.836 201.836 519.836C206.714 519.358 212.184 517.291 217.884 514.592C221.996 512.64 226.434 511.683 230.871 511.721C235.079 511.759 239.268 512.716 243.189 514.554C248.927 517.271 254.436 519.339 259.332 519.817C259.332 519.817 259.619 531.014 256.368 544.202L256.33 544.221Z" fill="white"/>
<path d="M230.527 575.419L230.336 575.324C224.693 572.472 219.931 568.031 216.182 562.136C213.198 557.428 210.864 551.781 209.239 545.35C206.465 534.421 206.695 524.87 206.695 524.774V524.392L207.077 524.353C210.539 524.009 214.652 522.65 220.007 520.104C226.682 516.927 234.333 516.927 241.009 520.104C246.403 522.669 250.553 524.009 254.034 524.372L254.417 524.411V524.793C254.417 524.793 254.646 534.44 251.854 545.369C250.209 551.8 247.856 557.447 244.872 562.155C241.123 568.07 236.361 572.51 230.718 575.343L230.527 575.439V575.419ZM207.555 525.157C207.555 527.033 207.632 535.531 210.08 545.14C212.586 555.035 218.171 568.108 230.527 574.443C242.883 568.108 248.487 555.035 251.012 545.14C253.46 535.55 253.575 527.033 253.575 525.157C250.075 524.736 245.963 523.377 240.664 520.851C234.238 517.807 226.855 517.807 220.409 520.851C215.149 523.358 211.056 524.717 207.574 525.138L207.555 525.157Z" fill="#00467A"/>
<path d="M230.718 555.513L218.783 540.412L222.551 537.426L230.68 547.685L243.036 531.626L246.862 534.574L230.718 555.513Z" fill="#00467A"/>
</svg>
