<svg width="100" height="57" viewBox="0 0 100 57" fill="none" xmlns="http://www.w3.org/2000/svg">
<path d="M57.7292 15.6189C65.7807 19.0771 71.4159 27.0377 71.4159 36.3094C71.4159 45.5812 65.7807 53.5418 57.7292 57C86.1662 53.834 99.5 36.3094 99.5 36.3094C99.5 36.3094 86.1662 18.7849 57.7292 15.6189Z" fill="#003768"/>
<path d="M26.0631 36.3094C26.0631 27.0605 31.6727 19.1177 39.6935 15.6443C11.7986 18.889 0.5 36.3094 0.5 36.3094C0.5 36.3094 11.7986 53.7298 39.6935 56.9746C31.6727 53.5012 26.0631 45.5583 26.0631 36.3094Z" fill="#003768"/>
<path d="M48.7395 21.4121C40.4605 21.4121 33.7488 28.082 33.7488 36.3094C33.7488 44.5368 40.4605 51.2067 48.7395 51.2067C57.0184 51.2067 63.7301 44.5368 63.7301 36.3094C63.7301 28.082 57.0184 21.4121 48.7395 21.4121ZM48.7395 42.1306C45.5051 42.1306 42.8818 39.5236 42.8818 36.3094C42.8818 33.0952 45.5051 30.4882 48.7395 30.4882C51.9738 30.4882 54.5971 33.0952 54.5971 36.3094C54.5971 39.5236 51.9738 42.1306 48.7395 42.1306ZM56.7398 29.5303C55.5559 29.5303 54.5971 28.5774 54.5971 27.401C54.5971 26.2246 55.5559 25.2717 56.7398 25.2717C57.9236 25.2717 58.8824 26.2246 58.8824 27.401C58.8824 28.5774 57.9236 29.5303 56.7398 29.5303Z" fill="#003768"/>
<path d="M21.4506 14.0563C23.2812 13.4744 25.1937 12.9408 27.1957 12.4657L18.0832 3.40991C16.0966 3.89014 14.1713 4.41103 12.3048 4.96748L21.4506 14.0563Z" fill="#003768"/>
<path d="M51.3372 0.0431953C50.225 0.0177863 49.1051 0 47.9699 0C47.3562 0 46.7502 0.0101636 46.1417 0.0177863V10.1229C46.9113 10.1052 47.6733 10.0797 48.4608 10.0797C49.4349 10.0797 50.3835 10.1077 51.3346 10.1356V0.0431953" fill="#003768"/>
<path d="M79.1708 3.63599L70.2321 12.519C72.2341 12.9865 74.1543 13.5125 76.0054 14.0816L84.9517 5.19102C83.0801 4.6371 81.1523 4.11622 79.1708 3.63599Z" fill="#003768"/>
</svg>
