<svg width="124" height="60" viewBox="0 0 124 60" fill="none" xmlns="http://www.w3.org/2000/svg">
<mask id="mask0_14_100" style="mask-type:alpha" maskUnits="userSpaceOnUse" x="0" y="0" width="124" height="60">
<rect y="0.843498" width="124" height="58.313" fill="#D9D9D9"/>
</mask>
<g mask="url(#mask0_14_100)">
<path d="M38.8028 5.32902C39.2031 6.23854 39.3397 7.31042 39.3286 8.362V24.7021C39.3268 26.6706 39.788 28.7129 40.8617 30.305C41.9225 31.8916 43.6512 33.0059 45.9886 32.9967H62.3915C66.5517 33.0244 69.5939 30.6297 71.1048 27.0617C72.9368 22.9974 72.4442 16.2489 70.4425 12.9908L70.4628 13.0259C68.284 9.46708 64.0887 7.18128 60.0337 7.1739C59.3585 7.17574 55.296 7.34732 54.5802 7.34363C51.741 7.27537 49.8315 6.96912 47.7542 5.10578C46.9258 8.07973 48.577 11.9355 52.0454 11.9946L52.252 11.989C57.1631 12.0333 63.1608 11.2179 66.1753 16.0109C68.7157 20.7245 66.476 28.1945 60.2754 28.1336H48.6932C46.0643 28.1004 44.4408 26.7887 44.402 24.1284C44.3688 24.0693 44.4352 6.78094 44.4094 6.71268C44.7175 2.24437 39.3895 -1.93613 36.79 3.28858C37.6774 3.73688 38.4449 4.44347 38.8028 5.32902Z" fill="#003768"/>
<path d="M88.0737 7.73469C87.9925 7.20705 87.9409 6.78273 87.7158 6.35472H87.7176C86.6402 3.39737 82.2715 2.61145 80.7735 5.68503C81.2495 6.00973 81.6793 6.27539 82.0631 6.78089C82.9929 8.0557 83.1405 9.33789 83.1829 10.954C83.2825 16.2248 83.4098 20.3592 83.1774 25.3422C83.1147 26.6779 82.1978 27.8919 80.886 28.1446C80.7717 28.1668 80.6554 28.1815 80.5355 28.1907V14.5681C80.5244 13.4926 80.351 12.4502 79.9525 11.5296H79.9544L79.9507 11.5222C79.9433 11.5075 79.9396 11.489 79.9322 11.4743H79.9304C78.9766 8.57411 74.3072 7.84907 73.0324 10.8821C74.3589 11.6827 75.1854 13.1033 75.333 14.7157L75.3496 14.7637V30.8511C75.6724 34.9448 71.7557 36.8266 68.1434 36.7067L47.5952 36.7122C44.0751 36.775 38.2176 36.4005 37.8486 41.116L37.8468 41.2138C37.8505 42.6601 39.0128 43.7449 40.2876 44.3298C41.1805 42.3391 43.3206 41.7635 45.3573 41.7894H71.5657C77.2 41.8299 80.5023 37.9852 80.4636 32.5852H82.0372C86.3727 32.7236 88.3892 28.4343 88.284 24.6523H88.2859C88.3467 23.0066 88.6032 11.1938 88.0737 7.73469Z" fill="#003768"/>
<path d="M95.9579 18.0363C95.9579 15.0605 95.956 12.9112 95.956 9.38011C95.956 8.59973 95.9579 7.74924 95.9579 6.81019C95.921 3.78459 94.386 0.996971 91.5412 0.843845H91.5394H91.5246H91.4545C90.01 0.847535 88.9215 2.00981 88.3385 3.28462C90.3217 4.17386 90.9287 6.31576 90.8789 8.34882V22.8902C90.8236 24.3882 92.0615 25.4011 93.423 25.3826C94.7624 25.3955 95.9837 24.4251 95.9579 22.9455C95.956 21.0066 95.9579 19.4126 95.9579 18.0363Z" fill="#003768"/>
<path d="M12.7214 49.0893L13.6568 50.0044L14.6512 49.01L13.6457 48.0285L12.7214 48.9306L11.7953 48.0285L10.8027 49.01L11.8063 50.0044L12.7214 49.0893Z" fill="#003768"/>
<path d="M20.5779 58.0843L19.6517 57.1804L18.6592 58.1618L19.6628 59.1562L20.5779 58.2412L21.5151 59.1562L22.5076 58.1618L21.504 57.1804L20.5779 58.0843Z" fill="#003768"/>
<path d="M27.1009 50.3985L28.0381 51.3135L29.0307 50.3192L28.0271 49.3377L27.1009 50.2417L26.1748 49.3377L25.1823 50.3192L26.1877 51.3135L27.1009 50.3985Z" fill="#003768"/>
<path d="M46.232 50.9953C45.8169 50.9953 45.317 51.1097 44.7303 51.3348L44.9664 52.4288C45.4793 52.3162 45.8446 52.2609 46.0623 52.2609C46.4608 52.2609 46.8777 52.379 47.315 52.6151C47.7504 52.8531 48.4237 53.3291 49.3351 54.0431C47.7245 54.781 46.0272 55.1481 44.2451 55.1481L44.2395 55.1537L44.234 55.1481H42.0441C41.6069 55.1481 41.1973 55.0319 40.8136 54.7994C40.8505 54.5965 40.8708 54.3954 40.8708 54.2017V50.7924L39.6513 50.9621V53.818C39.6513 54.698 39.2325 55.1371 38.3987 55.1371C38.0075 55.1371 37.6238 55.0633 37.2474 54.912C37.3065 54.6869 37.3378 54.4489 37.3378 54.2017V51.9768L36.1073 52.1465L36.1184 53.818C36.1184 54.698 35.6959 55.1371 34.8546 55.1371C34.5244 55.1371 34.1739 55.0633 33.8049 54.912C33.8639 54.6869 33.8953 54.4526 33.8953 54.2128V51.9879L32.6648 52.1576L32.6758 53.829C32.6758 54.7091 32.2552 55.1481 31.4121 55.1481H29.2241C28.689 55.1481 28.1928 54.9876 27.7334 54.6629C27.7574 54.5135 27.7684 54.3622 27.7684 54.2128V51.9879L26.549 52.1576V53.829C26.549 54.2958 26.4198 54.6316 26.1597 54.8382C25.8996 55.0448 25.4956 55.1481 24.9458 55.1481L24.9402 55.1537L24.9366 55.1481H22.7467C22.2117 55.1481 21.7154 54.9876 21.256 54.6629C21.28 54.5135 21.2911 54.3622 21.2911 54.2128V51.9879L20.0716 52.1576V53.829C20.0716 54.2958 19.9425 54.6316 19.6823 54.8382C19.4222 55.0448 19.0182 55.1481 18.4684 55.1481L18.4629 55.1537L18.4573 55.1481H16.2693C15.9372 55.1481 15.6955 55.067 15.5461 54.9009C15.3948 54.7349 15.3192 54.46 15.3192 54.0763L15.3081 50.3643L14.0905 50.5322V51.2001C13.5998 51.0174 13.1385 50.927 12.7013 50.927C11.9412 50.927 11.3121 51.2093 10.8121 51.7683C10.3103 52.3292 10.0613 53.0044 10.0613 53.7958C10.0613 54.5781 10.3085 55.233 10.8048 55.7588C11.3029 56.2846 11.9338 56.5484 12.7013 56.5484C13.3027 56.5484 13.9706 56.3602 14.6993 55.9839C15.0369 56.292 15.5609 56.4469 16.2675 56.4469H18.4573C19.6159 56.4469 20.4184 56.1684 20.8612 55.6112C21.4405 56.1684 22.0696 56.4469 22.7467 56.4469H24.9366C26.0933 56.4469 26.8958 56.1684 27.3386 55.6112C27.9179 56.1684 28.547 56.4469 29.2241 56.4469H31.4139C32.2404 56.4469 32.864 56.2366 33.2865 55.816C33.8584 56.2292 34.4174 56.4359 34.9672 56.4359C35.7051 56.4359 36.2881 56.2329 36.7161 55.827C37.3563 56.2329 37.9817 56.4359 38.5905 56.4359C39.3801 56.4359 39.9705 56.2163 40.3616 55.7809C40.8505 56.2255 41.4113 56.4469 42.0441 56.4469H44.234L44.2395 56.4414L44.2451 56.4469C45.2985 56.4469 46.2929 56.3104 47.2301 56.0355C48.1673 55.7606 49.2152 55.3105 50.3738 54.6869L50.5878 53.4564C49.2927 52.4398 48.3684 51.7757 47.8112 51.4639C47.2541 51.1521 46.7283 50.9953 46.232 50.9953ZM12.7013 55.3179C12.2641 55.3105 11.908 55.161 11.6294 54.8677C11.3509 54.5725 11.2125 54.2072 11.2125 53.7718C11.2125 53.3125 11.3564 52.9269 11.646 52.6151C11.9357 52.3033 12.3065 52.1465 12.7585 52.1465C13.0961 52.1465 13.5444 52.2443 14.1016 52.4398V54.2128C14.1016 54.5061 14.1237 54.7662 14.1698 54.9913C13.6865 55.2164 13.1994 55.3252 12.7013 55.3179Z" fill="#003768"/>
<path d="M46.5912 58.0731L47.6077 59.0546L48.6003 58.0731L47.5837 57.0787L46.5912 58.0731Z" fill="#003768"/>
<path d="M64.1962 53.7828C64.1962 54.6942 63.7774 55.1499 62.9436 55.1499C62.9307 55.1499 62.9362 55.1628 62.9251 55.1647C62.9159 55.1628 62.9196 55.1499 62.9104 55.1499C62.0746 55.1499 61.6558 54.6942 61.6558 53.7828V48.2076L60.4271 48.3792L60.4382 54.1463C60.4382 54.3861 60.453 54.5854 60.4825 54.744C60.1301 55.0152 59.715 55.1499 59.2409 55.1499H57.0529H56.433V53.5467C56.433 52.7571 56.2042 52.1206 55.7504 51.6391C55.2947 51.1576 54.7043 50.9177 53.983 50.9177C53.2155 50.9177 52.5809 51.1816 52.0754 51.7074C51.5717 52.235 51.319 52.9028 51.319 53.7164C51.319 54.5448 51.5625 55.2071 52.0477 55.7034C52.5329 56.1996 53.1749 56.4469 53.9719 56.4469H55.1914C55.1084 56.9376 54.8021 57.2918 54.2708 57.515C53.7413 57.7364 52.9628 57.8471 51.9407 57.8471L52.0754 58.8747C54.8372 58.8747 56.2854 58.0648 56.4201 56.4469H57.0529H59.2427C59.8294 56.4469 60.3847 56.207 60.9124 55.7255C61.3109 56.207 61.9805 56.4469 62.9214 56.4469L62.927 56.4413L62.9325 56.4469C64.5947 56.4469 65.4268 55.6812 65.4268 54.1463V48.2076L64.2073 48.3792L64.1962 53.7828ZM55.2135 55.172C55.16 55.172 54.9921 55.1776 54.7117 55.1886C54.4294 55.1997 54.2283 55.2071 54.1066 55.2071C53.5956 55.2071 53.1897 55.0743 52.889 54.8104C52.5864 54.5466 52.437 54.1684 52.437 53.6722C52.437 53.2275 52.5735 52.8659 52.8484 52.5874C53.1233 52.3106 53.4646 52.1704 53.8704 52.1704C54.2689 52.1704 54.5918 52.3033 54.8408 52.5708C55.0899 52.8383 55.2135 53.1943 55.2135 53.6371V55.172Z" fill="#003768"/>
<path d="M67.2533 56.4479H68.4838V48.2086L67.2533 48.3784V56.4479Z" fill="#003768"/>
<path d="M76.4863 50.4434L77.4235 51.3585L78.416 50.3659L77.4124 49.3826L76.4863 50.2866L75.5602 49.3826L74.5676 50.3659L75.5731 51.3585L76.4863 50.4434Z" fill="#003768"/>
<path d="M79.3964 53.8291C79.3964 54.7091 78.9757 55.1501 78.1326 55.1501H75.4465C74.7989 55.1501 74.3156 55.0246 73.9964 54.7774C73.6754 54.5283 73.5167 54.1372 73.5167 53.604C73.5167 53.3015 73.5684 52.8347 73.6735 52.2038L72.6146 52.0691C72.4559 52.7831 72.3766 53.4159 72.3766 53.9638C72.3766 54.7848 72.6109 55.4046 73.0813 55.8216C73.5518 56.2385 74.2418 56.447 75.1531 56.447H78.1437C78.9628 56.4396 79.5808 56.2459 79.9941 55.8659C80.4092 55.4858 80.6158 54.9342 80.6158 54.2129V50.8035L79.3853 50.9732L79.3964 53.8291Z" fill="#003768"/>
<path d="M89.9937 50.8606C89.1967 50.8606 88.551 51.1115 88.0529 51.6114C87.5566 52.1114 87.3075 52.7718 87.3075 53.591C87.3075 54.0135 87.4477 54.5319 87.7263 55.1481H86.9035H86.9017H84.7136L84.7081 55.1536L84.7026 55.1481C83.8668 55.1481 83.4499 54.6942 83.4499 53.7828V48.2076L82.2194 48.3773L82.2304 54.1444C82.2304 55.6794 83.0588 56.4469 84.7136 56.4469H86.9017H86.9035H89.4421C90.4272 56.4469 91.2039 56.183 91.7722 55.6572C92.3404 55.1296 92.6245 54.4083 92.6245 53.4895C92.6245 52.7368 92.3736 52.1114 91.8736 51.6114C91.3737 51.1115 90.7464 50.8606 89.9937 50.8606ZM90.8866 54.7145C90.5471 55.0042 90.0859 55.1481 89.4974 55.1481H88.979C88.6635 54.5927 88.5049 54.0577 88.5049 53.5449C88.5049 53.139 88.6451 52.7903 88.9292 52.497C89.2096 52.2036 89.5509 52.056 89.9494 52.056C90.3627 52.056 90.7077 52.1944 90.9826 52.4693C91.2574 52.7423 91.394 53.091 91.394 53.5116C91.394 54.0245 91.2261 54.4249 90.8866 54.7145Z" fill="#003768"/>
<path d="M106.651 49.3713L105.636 48.3898L104.644 49.3713L105.658 50.3657L106.651 49.3713Z" fill="#003768"/>
<path d="M114.102 48.3794L114.09 53.7849C114.09 54.6963 113.672 55.1501 112.838 55.1501C112.825 55.1501 112.83 55.1631 112.819 55.1649C112.81 55.1631 112.814 55.1501 112.803 55.1501C111.969 55.1501 111.55 54.6963 111.55 53.7849V48.2097L110.321 48.3794L110.332 54.1465C110.332 54.3864 110.347 54.5856 110.377 54.7443C110.024 55.0155 109.609 55.1501 109.135 55.1501H108.74C108.296 55.1501 107.965 55.0598 107.748 54.8808C107.829 54.8421 107.954 54.7793 108.12 54.6871L108.334 53.4584C107.039 52.4419 106.115 51.7777 105.558 51.4659C105.001 51.1541 104.473 50.9973 103.977 50.9973C103.564 50.9973 103.064 51.1099 102.477 51.3368L102.713 52.4308C103.224 52.3183 103.589 52.2629 103.807 52.2629C104.206 52.2629 104.624 52.3791 105.062 52.6171C105.497 52.8533 106.17 53.3293 107.082 54.0451C105.471 54.783 103.774 55.1501 101.992 55.1501L101.986 55.1557L101.981 55.1501H99.7908C99.3241 55.1501 98.8831 55.0155 98.4699 54.7443C98.4994 54.5948 98.516 54.4177 98.516 54.2148L98.5049 53.2997C98.5049 52.5396 98.2706 51.9345 97.8039 51.4825C97.3371 51.0305 96.7357 50.8055 95.9996 50.8055H95.0273V52.0692H95.7265C96.1785 52.0692 96.5475 52.1965 96.8335 52.4474C97.1194 52.7001 97.267 53.0285 97.2726 53.4363L97.2855 53.9989C97.2855 54.3605 97.1766 54.6428 96.9589 54.8457C96.7394 55.0487 96.4276 55.1501 96.0217 55.1501H93.188L93.4039 56.4489H96.0107C96.9497 56.4489 97.6231 56.2054 98.0308 55.7147C98.5566 56.2054 99.1433 56.4489 99.7908 56.4489H101.981L101.986 56.4434L101.992 56.4489C102.864 56.4489 103.691 56.3549 104.473 56.1667C105.255 55.9785 106.087 55.6778 106.967 55.2645C107.209 56.0541 107.796 56.4489 108.729 56.4489H109.135C109.722 56.4489 110.279 56.2073 110.807 55.7257C111.205 56.2073 111.875 56.4489 112.816 56.4489L112.821 56.4434L112.827 56.4489C114.489 56.4489 115.321 55.6815 115.321 54.1465V48.2097L114.102 48.3794Z" fill="#003768"/>
<path d="M106.351 39.1898C106.351 38.0607 105.436 37.1475 104.309 37.1475H84.7273C82.0743 37.0922 82.0651 41.2893 84.7254 41.2321C91.1309 41.2339 97.8093 41.2321 104.316 41.2321C105.445 41.2321 106.351 40.3189 106.351 39.1898Z" fill="#003768"/>
<path d="M115.2 31.0172C115.2 29.8882 114.285 28.9749 113.158 28.9749H93.4082C90.7553 28.9196 90.746 33.1167 93.4064 33.0595C99.8118 33.0614 106.658 33.0595 113.165 33.0595C114.294 33.0595 115.2 32.1463 115.2 31.0172Z" fill="#7C5326"/>
<path d="M124.001 22.8426C124.001 21.7135 123.086 20.8003 121.959 20.8003H101.968C99.315 20.745 99.304 24.9421 101.966 24.8849C108.372 24.8867 115.46 24.8849 121.966 24.8849C123.096 24.8849 124.001 23.9717 124.001 22.8426Z" fill="#940A17"/>
<path d="M13.3329 24.4694C10.3552 25.0985 8.51221 26.6445 8.51221 26.6445L10.1578 27.174C10.1578 27.174 11.6042 25.4693 13.3329 24.4694Z" fill="#7C5326"/>
<path d="M24.8895 24.8662V24.8828C24.5759 24.8662 24.3028 24.8828 24.0132 24.9086C21.1592 25.0987 19.1003 25.9492 18.0173 26.6853C19.7534 26.7185 21.779 26.6447 24.0132 26.6853C24.3434 26.6853 24.7069 26.6853 25.0556 26.7019C26.2289 26.7277 27.4539 26.7941 28.7103 26.9085L28.1476 25.0894C26.9742 24.9086 25.8821 24.8422 24.8895 24.8662Z" fill="#7C5326"/>
<path d="M32.8665 4.9731C31.4219 4.67792 29.5881 5.8568 29.0125 6.90285C30.9164 7.98764 31.4035 10.1628 31.3869 12.1718C31.3869 12.1829 31.361 26.2261 31.35 32.0633C31.3481 33.5761 30.4275 34.9321 29.0236 35.5004L28.9848 35.517C28.4683 35.7254 27.9111 35.814 27.3558 35.7845C22.1329 35.5059 19.7641 33.0596 13.3568 32.5744C18.6221 31.2405 24.9261 31.746 30.3777 32.3106L30.0881 31.3918C22.4355 29.4713 11.5747 28.951 5.12682 32.46C4.0863 29.6392 5.98838 27.9197 6.84809 27.2906C6.69866 24.586 12.6945 20.5919 22.8026 19.4499C26.7341 19.627 29.0328 16.3394 28.1786 12.6921C25.8614 14.2805 20.5851 14.4798 18.8232 14.4964C13.5469 14.3211 8.74278 17.3412 6.52524 22.0143C1.01642 22.981 -1.9852 30.1926 1.47211 34.6259V34.6351L3.84278 37.5482C10.8275 29.4768 16.7367 43.3429 25.3486 43.5514C30.7006 44.3115 36.5378 40.0683 36.5378 34.6591V10.6332C36.547 8.34186 35.7389 5.55978 32.8665 4.9731Z" fill="#7C5326"/>
<path d="M14.5303 13.7657C15.9878 13.4354 17.1944 13.4115 17.4969 13.4115L17.5707 13.4133L19.7329 13.465L17.7423 12.6182C17.7109 12.6071 16.5191 12.0979 14.9307 12.0961C14.0525 12.0961 13.0526 12.2547 12.0748 12.7528C11.0989 13.251 10.158 14.0941 9.41264 15.4113L8.15259 17.6344L10.0491 15.9223C11.3682 14.7306 13.071 14.0941 14.5303 13.7657Z" fill="#940A17"/>
<path d="M18.6351 11.917C18.9248 12.048 19.1664 12.1753 19.3343 12.2712C19.4173 12.3173 19.4819 12.3561 19.5262 12.3819L19.5723 12.4114L19.5852 12.4188L21.2733 13.5165L20.4947 11.6605C20.4745 11.6144 20.3029 11.2048 19.8786 10.775C19.4616 10.3451 18.7495 9.89867 17.7735 9.90236C17.3585 9.90236 16.9028 9.98169 16.4102 10.157L13.475 11.2012L16.5873 11.3598C17.2902 11.393 18.0577 11.655 18.6351 11.917Z" fill="#940A17"/>
</g>
</svg>
